<?xml version="1.0" encoding="UTF-8" standalone="no"?>
<!DOCTYPE svg PUBLIC "-//W3C//DTD SVG 1.1//EN"
 "http://www.w3.org/Graphics/SVG/1.1/DTD/svg11.dtd">
<!-- Generated by graphviz version 12.2.1 (20241206.2353)
 -->
<!-- Title: why_graph Pages: 1 -->
<svg width="250pt" height="453pt"
 viewBox="0.00 0.00 250.12 453.25" xmlns="http://www.w3.org/2000/svg" xmlns:xlink="http://www.w3.org/1999/xlink">
<g id="graph0" class="graph" transform="scale(1 1) rotate(0) translate(4 449.25)">
<title>why_graph</title>
<polygon fill="#eff1f5" stroke="none" points="-4,4 -4,-449.25 246.12,-449.25 246.12,4 -4,4"/>
<!-- (32, 66, 8)_64652 -->
<g id="node1" class="node">
<title>(32, 66, 8)_64652</title>
<path fill="#40a02b" stroke="black" d="M115.12,-445.25C115.12,-445.25 78.88,-445.25 78.88,-445.25 72.88,-445.25 66.88,-439.25 66.88,-433.25 66.88,-433.25 66.88,-421.25 66.88,-421.25 66.88,-415.25 72.88,-409.25 78.88,-409.25 78.88,-409.25 115.12,-409.25 115.12,-409.25 121.12,-409.25 127.12,-415.25 127.12,-421.25 127.12,-421.25 127.12,-433.25 127.12,-433.25 127.12,-439.25 121.12,-445.25 115.12,-445.25"/>
<text text-anchor="middle" x="97" y="-423.75" font-family="Arial" font-size="10.00" fill="#eff1f5">(32, 66, 8)</text>
</g>
<!-- (32, 31, 1)_43855 -->
<g id="node2" class="node">
<title>(32, 31, 1)_43855</title>
<path fill="#04a5e5" stroke="black" d="M53.12,-372.25C53.12,-372.25 16.87,-372.25 16.87,-372.25 10.87,-372.25 4.88,-366.25 4.88,-360.25 4.88,-360.25 4.88,-348.25 4.88,-348.25 4.88,-342.25 10.88,-336.25 16.88,-336.25 16.88,-336.25 53.12,-336.25 53.12,-336.25 59.12,-336.25 65.12,-342.25 65.12,-348.25 65.12,-348.25 65.12,-360.25 65.12,-360.25 65.12,-366.25 59.12,-372.25 53.12,-372.25"/>
<text text-anchor="middle" x="35" y="-350.75" font-family="Arial" font-size="10.00" fill="#eff1f5">(32, 31, 1)</text>
</g>
<!-- (32, 66, 8)_64652&#45;&gt;(32, 31, 1)_43855 -->
<g id="edge1" class="edge">
<title>(32, 66, 8)_64652&#45;&gt;(32, 31, 1)_43855</title>
<path fill="none" stroke="#4c4f69" d="M81.99,-409.06C72.24,-397.9 59.59,-383.41 49.87,-372.28"/>
</g>
<!-- (63, 35, 7)_4610 -->
<g id="node4" class="node">
<title>(63, 35, 7)_4610</title>
<path fill="#40a02b" stroke="black" stroke-dasharray="5,2" d="M120.12,-284.5C120.12,-284.5 83.88,-284.5 83.88,-284.5 77.88,-284.5 71.88,-278.5 71.88,-272.5 71.88,-272.5 71.88,-260.5 71.88,-260.5 71.88,-254.5 77.88,-248.5 83.88,-248.5 83.88,-248.5 120.12,-248.5 120.12,-248.5 126.12,-248.5 132.12,-254.5 132.12,-260.5 132.12,-260.5 132.12,-272.5 132.12,-272.5 132.12,-278.5 126.12,-284.5 120.12,-284.5"/>
<text text-anchor="middle" x="102" y="-263" font-family="Arial" font-size="10.00" fill="#eff1f5">(63, 35, 7)</text>
</g>
<!-- (32, 66, 8)_64652&#45;&gt;(63, 35, 7)_4610 -->
<g id="edge3" class="edge">
<title>(32, 66, 8)_64652&#45;&gt;(63, 35, 7)_4610</title>
<path fill="none" stroke="#4c4f69" d="M97.54,-408.96C98.51,-378.42 100.49,-315.29 101.46,-284.77"/>
</g>
<!-- (32, 66, 8)_61196 -->
<g id="node5" class="node">
<title>(32, 66, 8)_61196</title>
<path fill="#04a5e5" stroke="black" d="M173.12,-372.25C173.12,-372.25 136.88,-372.25 136.88,-372.25 130.88,-372.25 124.88,-366.25 124.88,-360.25 124.88,-360.25 124.88,-348.25 124.88,-348.25 124.88,-342.25 130.88,-336.25 136.88,-336.25 136.88,-336.25 173.12,-336.25 173.12,-336.25 179.12,-336.25 185.12,-342.25 185.12,-348.25 185.12,-348.25 185.12,-360.25 185.12,-360.25 185.12,-366.25 179.12,-372.25 173.12,-372.25"/>
<text text-anchor="middle" x="155" y="-350.75" font-family="Arial" font-size="10.00" fill="#eff1f5">(32, 66, 8)</text>
</g>
<!-- (32, 66, 8)_64652&#45;&gt;(32, 66, 8)_61196 -->
<g id="edge4" class="edge">
<title>(32, 66, 8)_64652&#45;&gt;(32, 66, 8)_61196</title>
<path fill="none" stroke="#4c4f69" d="M111.04,-409.06C120.16,-397.9 132,-383.41 141.09,-372.28"/>
</g>
<!-- Stable_(32, 31, 1)_43855 -->
<g id="node3" class="node">
<title>Stable_(32, 31, 1)_43855</title>
<path fill="#fe640b" stroke="black" d="M42,-284.5C42,-284.5 12,-284.5 12,-284.5 6,-284.5 0,-278.5 0,-272.5 0,-272.5 0,-260.5 0,-260.5 0,-254.5 6,-248.5 12,-248.5 12,-248.5 42,-248.5 42,-248.5 48,-248.5 54,-254.5 54,-260.5 54,-260.5 54,-272.5 54,-272.5 54,-278.5 48,-284.5 42,-284.5"/>
<text text-anchor="middle" x="27" y="-263" font-family="Arial" font-size="10.00" fill="#eff1f5">S(31, 1)</text>
</g>
<!-- (32, 31, 1)_43855&#45;&gt;Stable_(32, 31, 1)_43855 -->
<g id="edge2" class="edge">
<title>(32, 31, 1)_43855&#45;&gt;Stable_(32, 31, 1)_43855</title>
<path fill="none" stroke="#4c4f69" d="M33.38,-335.9C32.32,-324.51 30.9,-309.34 29.68,-296.18"/>
<polygon fill="#4c4f69" stroke="#4c4f69" points="33.17,-295.97 28.76,-286.33 26.2,-296.62 33.17,-295.97"/>
</g>
<!-- (32, 66, 8)_61196&#45;&gt;(63, 35, 7)_4610 -->
<g id="edge5" class="edge">
<title>(32, 66, 8)_61196&#45;&gt;(63, 35, 7)_4610</title>
<path fill="none" stroke="#4c4f69" d="M144.27,-335.9C136.95,-324.04 127.09,-308.09 118.74,-294.58"/>
<polygon fill="#4c4f69" stroke="#4c4f69" points="121.74,-292.78 113.51,-286.11 115.79,-296.46 121.74,-292.78"/>
<text text-anchor="middle" x="138.12" y="-304.95" font-family="Arial Bold" font-size="14.00" fill="#4c4f69">H</text>
</g>
<!-- (32, 66, 8)_56050 -->
<g id="node6" class="node">
<title>(32, 66, 8)_56050</title>
<path fill="#04a5e5" stroke="black" d="M198.12,-284.5C198.12,-284.5 161.88,-284.5 161.88,-284.5 155.88,-284.5 149.88,-278.5 149.88,-272.5 149.88,-272.5 149.88,-260.5 149.88,-260.5 149.88,-254.5 155.88,-248.5 161.88,-248.5 161.88,-248.5 198.12,-248.5 198.12,-248.5 204.12,-248.5 210.12,-254.5 210.12,-260.5 210.12,-260.5 210.12,-272.5 210.12,-272.5 210.12,-278.5 204.12,-284.5 198.12,-284.5"/>
<text text-anchor="middle" x="180" y="-263" font-family="Arial" font-size="10.00" fill="#eff1f5">(32, 66, 8)</text>
</g>
<!-- (32, 66, 8)_61196&#45;&gt;(32, 66, 8)_56050 -->
<g id="edge6" class="edge">
<title>(32, 66, 8)_61196&#45;&gt;(32, 66, 8)_56050</title>
<path fill="none" stroke="#4c4f69" d="M160.06,-335.9C164.4,-321.02 170.61,-299.7 174.95,-284.83"/>
</g>
<!-- (31, 66, 8)_55926 -->
<g id="node7" class="node">
<title>(31, 66, 8)_55926</title>
<path fill="#d20f39" stroke="black" d="M152.12,-196.75C152.12,-196.75 115.88,-196.75 115.88,-196.75 109.88,-196.75 103.88,-190.75 103.88,-184.75 103.88,-184.75 103.88,-172.75 103.88,-172.75 103.88,-166.75 109.88,-160.75 115.88,-160.75 115.88,-160.75 152.12,-160.75 152.12,-160.75 158.12,-160.75 164.12,-166.75 164.12,-172.75 164.12,-172.75 164.12,-184.75 164.12,-184.75 164.12,-190.75 158.12,-196.75 152.12,-196.75"/>
<text text-anchor="middle" x="134" y="-175.25" font-family="Arial" font-size="10.00" fill="#eff1f5">(31, 66, 8)</text>
</g>
<!-- (32, 66, 8)_56050&#45;&gt;(31, 66, 8)_55926 -->
<g id="edge7" class="edge">
<title>(32, 66, 8)_56050&#45;&gt;(31, 66, 8)_55926</title>
<path fill="none" stroke="#4c4f69" d="M165.46,-238.39C158.21,-224.87 149.65,-208.93 143.29,-197.08"/>
<polygon fill="#4c4f69" stroke="#4c4f69" points="162.16,-239.66 169.98,-246.81 168.33,-236.35 162.16,-239.66"/>
<text text-anchor="middle" x="165.62" y="-217.2" font-family="Arial Bold" font-size="14.00" fill="#4c4f69">E</text>
</g>
<!-- (32, 66, 8)_44071 -->
<g id="node12" class="node">
<title>(32, 66, 8)_44071</title>
<path fill="#04a5e5" stroke="black" d="M230.12,-196.75C230.12,-196.75 193.88,-196.75 193.88,-196.75 187.88,-196.75 181.88,-190.75 181.88,-184.75 181.88,-184.75 181.88,-172.75 181.88,-172.75 181.88,-166.75 187.88,-160.75 193.88,-160.75 193.88,-160.75 230.12,-160.75 230.12,-160.75 236.12,-160.75 242.12,-166.75 242.12,-172.75 242.12,-172.75 242.12,-184.75 242.12,-184.75 242.12,-190.75 236.12,-196.75 230.12,-196.75"/>
<text text-anchor="middle" x="212" y="-175.25" font-family="Arial" font-size="10.00" fill="#eff1f5">(32, 66, 8)</text>
</g>
<!-- (32, 66, 8)_56050&#45;&gt;(32, 66, 8)_44071 -->
<g id="edge12" class="edge">
<title>(32, 66, 8)_56050&#45;&gt;(32, 66, 8)_44071</title>
<path fill="none" stroke="#4c4f69" d="M186.48,-248.15C192.03,-233.27 199.98,-211.95 205.53,-197.08"/>
</g>
<!-- (30, 66, 8)_44524 -->
<g id="node8" class="node">
<title>(30, 66, 8)_44524</title>
<path fill="#04a5e5" stroke="black" d="M76.12,-109C76.12,-109 39.88,-109 39.88,-109 33.88,-109 27.88,-103 27.88,-97 27.88,-97 27.88,-85 27.88,-85 27.88,-79 33.88,-73 39.88,-73 39.88,-73 76.12,-73 76.12,-73 82.12,-73 88.12,-79 88.12,-85 88.12,-85 88.12,-97 88.12,-97 88.12,-103 82.12,-109 76.12,-109"/>
<text text-anchor="middle" x="58" y="-87.5" font-family="Arial" font-size="10.00" fill="#eff1f5">(30, 66, 8)</text>
</g>
<!-- (31, 66, 8)_55926&#45;&gt;(30, 66, 8)_44524 -->
<g id="edge8" class="edge">
<title>(31, 66, 8)_55926&#45;&gt;(30, 66, 8)_44524</title>
<path fill="none" stroke="#4c4f69" d="M111.03,-151.83C98.83,-138.07 84.17,-121.52 73.36,-109.33"/>
<polygon fill="#4c4f69" stroke="#4c4f69" points="108.36,-154.1 117.62,-159.26 113.6,-149.46 108.36,-154.1"/>
<text text-anchor="middle" x="107.31" y="-129.45" font-family="Arial Bold" font-size="14.00" fill="#4c4f69">E</text>
</g>
<!-- (31, 66, 8)_44291 -->
<g id="node10" class="node">
<title>(31, 66, 8)_44291</title>
<path fill="#04a5e5" stroke="black" d="M154.12,-109C154.12,-109 117.88,-109 117.88,-109 111.88,-109 105.88,-103 105.88,-97 105.88,-97 105.88,-85 105.88,-85 105.88,-79 111.88,-73 117.88,-73 117.88,-73 154.12,-73 154.12,-73 160.12,-73 166.12,-79 166.12,-85 166.12,-85 166.12,-97 166.12,-97 166.12,-103 160.12,-109 154.12,-109"/>
<text text-anchor="middle" x="136" y="-87.5" font-family="Arial" font-size="10.00" fill="#eff1f5">(31, 66, 8)</text>
</g>
<!-- (31, 66, 8)_55926&#45;&gt;(31, 66, 8)_44291 -->
<g id="edge10" class="edge">
<title>(31, 66, 8)_55926&#45;&gt;(31, 66, 8)_44291</title>
<path fill="none" stroke="#4c4f69" d="M134.4,-160.4C134.75,-145.52 135.25,-124.2 135.6,-109.33"/>
</g>
<!-- Stable_(30, 66, 8)_44524 -->
<g id="node9" class="node">
<title>Stable_(30, 66, 8)_44524</title>
<path fill="#fe640b" stroke="black" d="M73,-36C73,-36 43,-36 43,-36 37,-36 31,-30 31,-24 31,-24 31,-12 31,-12 31,-6 37,0 43,0 43,0 73,0 73,0 79,0 85,-6 85,-12 85,-12 85,-24 85,-24 85,-30 79,-36 73,-36"/>
<text text-anchor="middle" x="58" y="-14.5" font-family="Arial" font-size="10.00" fill="#eff1f5">S(66, 8)</text>
</g>
<!-- (30, 66, 8)_44524&#45;&gt;Stable_(30, 66, 8)_44524 -->
<g id="edge9" class="edge">
<title>(30, 66, 8)_44524&#45;&gt;Stable_(30, 66, 8)_44524</title>
<path fill="none" stroke="#4c4f69" d="M58,-72.81C58,-65.23 58,-56.1 58,-47.54"/>
<polygon fill="#4c4f69" stroke="#4c4f69" points="61.5,-47.54 58,-37.54 54.5,-47.54 61.5,-47.54"/>
</g>
<!-- Stable_(31, 66, 8)_44291 -->
<g id="node11" class="node">
<title>Stable_(31, 66, 8)_44291</title>
<path fill="#fe640b" stroke="black" d="M151,-36C151,-36 121,-36 121,-36 115,-36 109,-30 109,-24 109,-24 109,-12 109,-12 109,-6 115,0 121,0 121,0 151,0 151,0 157,0 163,-6 163,-12 163,-12 163,-24 163,-24 163,-30 157,-36 151,-36"/>
<text text-anchor="middle" x="136" y="-14.5" font-family="Arial" font-size="10.00" fill="#eff1f5">S(66, 8)</text>
</g>
<!-- (31, 66, 8)_44291&#45;&gt;Stable_(31, 66, 8)_44291 -->
<g id="edge11" class="edge">
<title>(31, 66, 8)_44291&#45;&gt;Stable_(31, 66, 8)_44291</title>
<path fill="none" stroke="#4c4f69" d="M136,-72.81C136,-65.23 136,-56.1 136,-47.54"/>
<polygon fill="#4c4f69" stroke="#4c4f69" points="139.5,-47.54 136,-37.54 132.5,-47.54 139.5,-47.54"/>
</g>
<!-- Stable_(32, 66, 8)_44071 -->
<g id="node13" class="node">
<title>Stable_(32, 66, 8)_44071</title>
<path fill="#fe640b" stroke="black" d="M227,-109C227,-109 197,-109 197,-109 191,-109 185,-103 185,-97 185,-97 185,-85 185,-85 185,-79 191,-73 197,-73 197,-73 227,-73 227,-73 233,-73 239,-79 239,-85 239,-85 239,-97 239,-97 239,-103 233,-109 227,-109"/>
<text text-anchor="middle" x="212" y="-87.5" font-family="Arial" font-size="10.00" fill="#eff1f5">S(66, 8)</text>
</g>
<!-- (32, 66, 8)_44071&#45;&gt;Stable_(32, 66, 8)_44071 -->
<g id="edge13" class="edge">
<title>(32, 66, 8)_44071&#45;&gt;Stable_(32, 66, 8)_44071</title>
<path fill="none" stroke="#4c4f69" d="M212,-160.4C212,-149.01 212,-133.84 212,-120.68"/>
<polygon fill="#4c4f69" stroke="#4c4f69" points="215.5,-120.84 212,-110.84 208.5,-120.84 215.5,-120.84"/>
</g>
</g>
</svg>
