<?xml version="1.0" encoding="UTF-8" standalone="no"?>
<!DOCTYPE svg PUBLIC "-//W3C//DTD SVG 1.1//EN"
 "http://www.w3.org/Graphics/SVG/1.1/DTD/svg11.dtd">
<!-- Generated by graphviz version 12.2.1 (20241206.2353)
 -->
<!-- Title: why_graph Pages: 1 -->
<svg width="310pt" height="278pt"
 viewBox="0.00 0.00 309.50 277.75" xmlns="http://www.w3.org/2000/svg" xmlns:xlink="http://www.w3.org/1999/xlink">
<g id="graph0" class="graph" transform="scale(1 1) rotate(0) translate(4 273.75)">
<title>why_graph</title>
<polygon fill="#eff1f5" stroke="none" points="-4,4 -4,-273.75 305.5,-273.75 305.5,4 -4,4"/>
<!-- (12, 63, 11)_63736 -->
<g id="node1" class="node">
<title>(12, 63, 11)_63736</title>
<path fill="#40a02b" stroke="black" d="M128.5,-269.75C128.5,-269.75 87.75,-269.75 87.75,-269.75 81.75,-269.75 75.75,-263.75 75.75,-257.75 75.75,-257.75 75.75,-245.75 75.75,-245.75 75.75,-239.75 81.75,-233.75 87.75,-233.75 87.75,-233.75 128.5,-233.75 128.5,-233.75 134.5,-233.75 140.5,-239.75 140.5,-245.75 140.5,-245.75 140.5,-257.75 140.5,-257.75 140.5,-263.75 134.5,-269.75 128.5,-269.75"/>
<text text-anchor="middle" x="108.12" y="-248.25" font-family="Arial" font-size="10.00" fill="#eff1f5">(12, 63, 11)</text>
</g>
<!-- (12, 37, 4)_58247 -->
<g id="node2" class="node">
<title>(12, 37, 4)_58247</title>
<path fill="#d20f39" stroke="black" d="M48.25,-196.75C48.25,-196.75 12,-196.75 12,-196.75 6,-196.75 0,-190.75 0,-184.75 0,-184.75 0,-172.75 0,-172.75 0,-166.75 6,-160.75 12,-160.75 12,-160.75 48.25,-160.75 48.25,-160.75 54.25,-160.75 60.25,-166.75 60.25,-172.75 60.25,-172.75 60.25,-184.75 60.25,-184.75 60.25,-190.75 54.25,-196.75 48.25,-196.75"/>
<text text-anchor="middle" x="30.12" y="-175.25" font-family="Arial" font-size="10.00" fill="#eff1f5">(12, 37, 4)</text>
</g>
<!-- (12, 63, 11)_63736&#45;&gt;(12, 37, 4)_58247 -->
<g id="edge1" class="edge">
<title>(12, 63, 11)_63736&#45;&gt;(12, 37, 4)_58247</title>
<path fill="none" stroke="#4c4f69" d="M89.24,-233.56C77.07,-222.48 61.3,-208.12 49.1,-197.02"/>
</g>
<!-- (49, 26, 7)_1865 -->
<g id="node4" class="node">
<title>(49, 26, 7)_1865</title>
<path fill="#04a5e5" stroke="black" d="M126.25,-196.75C126.25,-196.75 90,-196.75 90,-196.75 84,-196.75 78,-190.75 78,-184.75 78,-184.75 78,-172.75 78,-172.75 78,-166.75 84,-160.75 90,-160.75 90,-160.75 126.25,-160.75 126.25,-160.75 132.25,-160.75 138.25,-166.75 138.25,-172.75 138.25,-172.75 138.25,-184.75 138.25,-184.75 138.25,-190.75 132.25,-196.75 126.25,-196.75"/>
<text text-anchor="middle" x="108.12" y="-175.25" font-family="Arial" font-size="10.00" fill="#eff1f5">(49, 26, 7)</text>
</g>
<!-- (12, 63, 11)_63736&#45;&gt;(49, 26, 7)_1865 -->
<g id="edge3" class="edge">
<title>(12, 63, 11)_63736&#45;&gt;(49, 26, 7)_1865</title>
<path fill="none" stroke="#4c4f69" d="M108.12,-233.56C108.12,-222.4 108.12,-207.91 108.12,-196.78"/>
</g>
<!-- (12, 63, 11)_53515 -->
<g id="node6" class="node">
<title>(12, 63, 11)_53515</title>
<path fill="#04a5e5" stroke="black" d="M209.5,-196.75C209.5,-196.75 168.75,-196.75 168.75,-196.75 162.75,-196.75 156.75,-190.75 156.75,-184.75 156.75,-184.75 156.75,-172.75 156.75,-172.75 156.75,-166.75 162.75,-160.75 168.75,-160.75 168.75,-160.75 209.5,-160.75 209.5,-160.75 215.5,-160.75 221.5,-166.75 221.5,-172.75 221.5,-172.75 221.5,-184.75 221.5,-184.75 221.5,-190.75 215.5,-196.75 209.5,-196.75"/>
<text text-anchor="middle" x="189.12" y="-175.25" font-family="Arial" font-size="10.00" fill="#eff1f5">(12, 63, 11)</text>
</g>
<!-- (12, 63, 11)_63736&#45;&gt;(12, 63, 11)_53515 -->
<g id="edge5" class="edge">
<title>(12, 63, 11)_63736&#45;&gt;(12, 63, 11)_53515</title>
<path fill="none" stroke="#4c4f69" d="M127.73,-233.56C140.37,-222.48 156.76,-208.12 169.42,-197.02"/>
</g>
<!-- (25, 26, 2)_&#45;1 -->
<g id="node3" class="node">
<title>(25, 26, 2)_&#45;1</title>
<path fill="#d20f39" stroke="black" d="M48.25,-109C48.25,-109 12,-109 12,-109 6,-109 0,-103 0,-97 0,-97 0,-85 0,-85 0,-79 6,-73 12,-73 12,-73 48.25,-73 48.25,-73 54.25,-73 60.25,-79 60.25,-85 60.25,-85 60.25,-97 60.25,-97 60.25,-103 54.25,-109 48.25,-109"/>
<text text-anchor="middle" x="30.12" y="-87.5" font-family="Arial" font-size="10.00" fill="#eff1f5">(25, 26, 2)</text>
</g>
<!-- (12, 37, 4)_58247&#45;&gt;(25, 26, 2)_&#45;1 -->
<g id="edge2" class="edge">
<title>(12, 37, 4)_58247&#45;&gt;(25, 26, 2)_&#45;1</title>
<path fill="none" stroke="#4c4f69" d="M30.12,-149.04C30.12,-135.88 30.12,-120.71 30.12,-109.33"/>
<polygon fill="#4c4f69" stroke="#4c4f69" points="26.63,-148.88 30.13,-158.88 33.63,-148.88 26.63,-148.88"/>
<text text-anchor="middle" x="34.62" y="-129.45" font-family="Arial Bold" font-size="14.00" fill="#4c4f69">P</text>
</g>
<!-- Stable_(49, 26, 7)_1865 -->
<g id="node5" class="node">
<title>Stable_(49, 26, 7)_1865</title>
<path fill="#fe640b" stroke="black" d="M123.12,-109C123.12,-109 93.12,-109 93.12,-109 87.12,-109 81.12,-103 81.12,-97 81.12,-97 81.12,-85 81.12,-85 81.12,-79 87.12,-73 93.12,-73 93.12,-73 123.12,-73 123.12,-73 129.12,-73 135.12,-79 135.12,-85 135.12,-85 135.12,-97 135.12,-97 135.12,-103 129.12,-109 123.12,-109"/>
<text text-anchor="middle" x="108.12" y="-87.5" font-family="Arial" font-size="10.00" fill="#eff1f5">S(26, 7)</text>
</g>
<!-- (49, 26, 7)_1865&#45;&gt;Stable_(49, 26, 7)_1865 -->
<g id="edge4" class="edge">
<title>(49, 26, 7)_1865&#45;&gt;Stable_(49, 26, 7)_1865</title>
<path fill="none" stroke="#4c4f69" d="M108.12,-160.4C108.12,-149.01 108.12,-133.84 108.12,-120.68"/>
<polygon fill="#4c4f69" stroke="#4c4f69" points="111.63,-120.84 108.13,-110.84 104.63,-120.84 111.63,-120.84"/>
</g>
<!-- (11, 63, 11)_49306 -->
<g id="node7" class="node">
<title>(11, 63, 11)_49306</title>
<path fill="#04a5e5" stroke="black" d="M207.12,-109C207.12,-109 167.12,-109 167.12,-109 161.12,-109 155.12,-103 155.12,-97 155.12,-97 155.12,-85 155.12,-85 155.12,-79 161.12,-73 167.12,-73 167.12,-73 207.12,-73 207.12,-73 213.12,-73 219.12,-79 219.12,-85 219.12,-85 219.12,-97 219.12,-97 219.12,-103 213.12,-109 207.12,-109"/>
<text text-anchor="middle" x="187.12" y="-87.5" font-family="Arial" font-size="10.00" fill="#eff1f5">(11, 63, 11)</text>
</g>
<!-- (12, 63, 11)_53515&#45;&gt;(11, 63, 11)_49306 -->
<g id="edge6" class="edge">
<title>(12, 63, 11)_53515&#45;&gt;(11, 63, 11)_49306</title>
<path fill="none" stroke="#4c4f69" d="M188.46,-149.04C188.15,-135.88 187.79,-120.71 187.53,-109.33"/>
<polygon fill="#4c4f69" stroke="#4c4f69" points="184.95,-148.97 188.68,-158.88 191.95,-148.81 184.95,-148.97"/>
<text text-anchor="middle" x="192.8" y="-129.45" font-family="Arial Bold" font-size="14.00" fill="#4c4f69">E</text>
</g>
<!-- (12, 63, 11)_49075 -->
<g id="node9" class="node">
<title>(12, 63, 11)_49075</title>
<path fill="#04a5e5" stroke="black" d="M289.5,-109C289.5,-109 248.75,-109 248.75,-109 242.75,-109 236.75,-103 236.75,-97 236.75,-97 236.75,-85 236.75,-85 236.75,-79 242.75,-73 248.75,-73 248.75,-73 289.5,-73 289.5,-73 295.5,-73 301.5,-79 301.5,-85 301.5,-85 301.5,-97 301.5,-97 301.5,-103 295.5,-109 289.5,-109"/>
<text text-anchor="middle" x="269.12" y="-87.5" font-family="Arial" font-size="10.00" fill="#eff1f5">(12, 63, 11)</text>
</g>
<!-- (12, 63, 11)_53515&#45;&gt;(12, 63, 11)_49075 -->
<g id="edge8" class="edge">
<title>(12, 63, 11)_53515&#45;&gt;(12, 63, 11)_49075</title>
<path fill="none" stroke="#4c4f69" d="M205.31,-160.4C219.19,-145.52 239.09,-124.2 252.96,-109.33"/>
</g>
<!-- Stable_(11, 63, 11)_49306 -->
<g id="node8" class="node">
<title>Stable_(11, 63, 11)_49306</title>
<path fill="#fe640b" stroke="black" d="M202.62,-36C202.62,-36 171.62,-36 171.62,-36 165.62,-36 159.62,-30 159.62,-24 159.62,-24 159.62,-12 159.62,-12 159.62,-6 165.62,0 171.62,0 171.62,0 202.62,0 202.62,0 208.62,0 214.62,-6 214.62,-12 214.62,-12 214.62,-24 214.62,-24 214.62,-30 208.62,-36 202.62,-36"/>
<text text-anchor="middle" x="187.12" y="-14.5" font-family="Arial" font-size="10.00" fill="#eff1f5">S(63, 11)</text>
</g>
<!-- (11, 63, 11)_49306&#45;&gt;Stable_(11, 63, 11)_49306 -->
<g id="edge7" class="edge">
<title>(11, 63, 11)_49306&#45;&gt;Stable_(11, 63, 11)_49306</title>
<path fill="none" stroke="#4c4f69" d="M187.12,-72.81C187.12,-65.23 187.12,-56.1 187.12,-47.54"/>
<polygon fill="#4c4f69" stroke="#4c4f69" points="190.63,-47.54 187.13,-37.54 183.63,-47.54 190.63,-47.54"/>
</g>
<!-- Stable_(12, 63, 11)_49075 -->
<g id="node10" class="node">
<title>Stable_(12, 63, 11)_49075</title>
<path fill="#fe640b" stroke="black" d="M284.62,-36C284.62,-36 253.62,-36 253.62,-36 247.62,-36 241.62,-30 241.62,-24 241.62,-24 241.62,-12 241.62,-12 241.62,-6 247.62,0 253.62,0 253.62,0 284.62,0 284.62,0 290.62,0 296.62,-6 296.62,-12 296.62,-12 296.62,-24 296.62,-24 296.62,-30 290.62,-36 284.62,-36"/>
<text text-anchor="middle" x="269.12" y="-14.5" font-family="Arial" font-size="10.00" fill="#eff1f5">S(63, 11)</text>
</g>
<!-- (12, 63, 11)_49075&#45;&gt;Stable_(12, 63, 11)_49075 -->
<g id="edge9" class="edge">
<title>(12, 63, 11)_49075&#45;&gt;Stable_(12, 63, 11)_49075</title>
<path fill="none" stroke="#4c4f69" d="M269.12,-72.81C269.12,-65.23 269.12,-56.1 269.12,-47.54"/>
<polygon fill="#4c4f69" stroke="#4c4f69" points="272.63,-47.54 269.13,-37.54 265.63,-47.54 272.63,-47.54"/>
</g>
</g>
</svg>
