<?xml version="1.0" encoding="UTF-8" standalone="no"?>
<!DOCTYPE svg PUBLIC "-//W3C//DTD SVG 1.1//EN"
 "http://www.w3.org/Graphics/SVG/1.1/DTD/svg11.dtd">
<!-- Generated by graphviz version 12.2.1 (20241206.2353)
 -->
<!-- Title: why_graph Pages: 1 -->
<svg width="888pt" height="980pt"
 viewBox="0.00 0.00 888.25 979.75" xmlns="http://www.w3.org/2000/svg" xmlns:xlink="http://www.w3.org/1999/xlink">
<g id="graph0" class="graph" transform="scale(1 1) rotate(0) translate(4 975.75)">
<title>why_graph</title>
<polygon fill="#eff1f5" stroke="none" points="-4,4 -4,-975.75 884.25,-975.75 884.25,4 -4,4"/>
<!-- (24, 55, 8)_64438 -->
<g id="node1" class="node">
<title>(24, 55, 8)_64438</title>
<path fill="#40a02b" stroke="black" d="M357.25,-971.75C357.25,-971.75 321,-971.75 321,-971.75 315,-971.75 309,-965.75 309,-959.75 309,-959.75 309,-947.75 309,-947.75 309,-941.75 315,-935.75 321,-935.75 321,-935.75 357.25,-935.75 357.25,-935.75 363.25,-935.75 369.25,-941.75 369.25,-947.75 369.25,-947.75 369.25,-959.75 369.25,-959.75 369.25,-965.75 363.25,-971.75 357.25,-971.75"/>
<text text-anchor="middle" x="339.12" y="-950.25" font-family="Arial" font-size="10.00" fill="#eff1f5">(24, 55, 8)</text>
</g>
<!-- (24, 55, 8)_61280 -->
<g id="node2" class="node">
<title>(24, 55, 8)_61280</title>
<path fill="#04a5e5" stroke="black" d="M248.25,-898.75C248.25,-898.75 212,-898.75 212,-898.75 206,-898.75 200,-892.75 200,-886.75 200,-886.75 200,-874.75 200,-874.75 200,-868.75 206,-862.75 212,-862.75 212,-862.75 248.25,-862.75 248.25,-862.75 254.25,-862.75 260.25,-868.75 260.25,-874.75 260.25,-874.75 260.25,-886.75 260.25,-886.75 260.25,-892.75 254.25,-898.75 248.25,-898.75"/>
<text text-anchor="middle" x="230.12" y="-877.25" font-family="Arial" font-size="10.00" fill="#eff1f5">(24, 55, 8)</text>
</g>
<!-- (24, 55, 8)_64438&#45;&gt;(24, 55, 8)_61280 -->
<g id="edge1" class="edge">
<title>(24, 55, 8)_64438&#45;&gt;(24, 55, 8)_61280</title>
<path fill="none" stroke="#4c4f69" d="M312.46,-935.38C295.57,-924.38 273.8,-910.2 256.89,-899.19"/>
</g>
<!-- (79, 0, 1)_&#45;1 -->
<g id="node29" class="node">
<title>(79, 0, 1)_&#45;1</title>
<path fill="#d20f39" stroke="black" d="M354.62,-898.75C354.62,-898.75 323.62,-898.75 323.62,-898.75 317.62,-898.75 311.62,-892.75 311.62,-886.75 311.62,-886.75 311.62,-874.75 311.62,-874.75 311.62,-868.75 317.62,-862.75 323.62,-862.75 323.62,-862.75 354.62,-862.75 354.62,-862.75 360.62,-862.75 366.62,-868.75 366.62,-874.75 366.62,-874.75 366.62,-886.75 366.62,-886.75 366.62,-892.75 360.62,-898.75 354.62,-898.75"/>
<text text-anchor="middle" x="339.12" y="-877.25" font-family="Arial" font-size="10.00" fill="#eff1f5">(79, 0, 1)</text>
</g>
<!-- (24, 55, 8)_64438&#45;&gt;(79, 0, 1)_&#45;1 -->
<g id="edge28" class="edge">
<title>(24, 55, 8)_64438&#45;&gt;(79, 0, 1)_&#45;1</title>
<path fill="none" stroke="#4c4f69" d="M339.12,-935.56C339.12,-924.4 339.12,-909.91 339.12,-898.78"/>
</g>
<!-- (24, 55, 9)_64379 -->
<g id="node30" class="node">
<title>(24, 55, 9)_64379</title>
<path fill="#40a02b" stroke="black" d="M450.25,-898.75C450.25,-898.75 414,-898.75 414,-898.75 408,-898.75 402,-892.75 402,-886.75 402,-886.75 402,-874.75 402,-874.75 402,-868.75 408,-862.75 414,-862.75 414,-862.75 450.25,-862.75 450.25,-862.75 456.25,-862.75 462.25,-868.75 462.25,-874.75 462.25,-874.75 462.25,-886.75 462.25,-886.75 462.25,-892.75 456.25,-898.75 450.25,-898.75"/>
<text text-anchor="middle" x="432.12" y="-877.25" font-family="Arial" font-size="10.00" fill="#eff1f5">(24, 55, 9)</text>
</g>
<!-- (24, 55, 8)_64438&#45;&gt;(24, 55, 9)_64379 -->
<g id="edge29" class="edge">
<title>(24, 55, 8)_64438&#45;&gt;(24, 55, 9)_64379</title>
<path fill="none" stroke="#4c4f69" d="M361.64,-935.56C376.15,-924.48 394.96,-910.12 409.5,-899.02"/>
</g>
<!-- (47, 32, 7)_1638 -->
<g id="node3" class="node">
<title>(47, 32, 7)_1638</title>
<path fill="#04a5e5" stroke="black" d="M162.25,-811C162.25,-811 126,-811 126,-811 120,-811 114,-805 114,-799 114,-799 114,-787 114,-787 114,-781 120,-775 126,-775 126,-775 162.25,-775 162.25,-775 168.25,-775 174.25,-781 174.25,-787 174.25,-787 174.25,-799 174.25,-799 174.25,-805 168.25,-811 162.25,-811"/>
<text text-anchor="middle" x="144.12" y="-789.5" font-family="Arial" font-size="10.00" fill="#eff1f5">(47, 32, 7)</text>
</g>
<!-- (24, 55, 8)_61280&#45;&gt;(47, 32, 7)_1638 -->
<g id="edge2" class="edge">
<title>(24, 55, 8)_61280&#45;&gt;(47, 32, 7)_1638</title>
<path fill="none" stroke="#4c4f69" d="M212.72,-862.4C200.25,-849.96 183.26,-833.02 169.31,-819.11"/>
<polygon fill="#4c4f69" stroke="#4c4f69" points="172.13,-816.98 162.57,-812.4 167.18,-821.93 172.13,-816.98"/>
<text text-anchor="middle" x="199.7" y="-831.45" font-family="Arial Bold" font-size="14.00" fill="#4c4f69">H</text>
</g>
<!-- (24, 55, 8)_60124 -->
<g id="node5" class="node">
<title>(24, 55, 8)_60124</title>
<path fill="#04a5e5" stroke="black" d="M248.25,-811C248.25,-811 212,-811 212,-811 206,-811 200,-805 200,-799 200,-799 200,-787 200,-787 200,-781 206,-775 212,-775 212,-775 248.25,-775 248.25,-775 254.25,-775 260.25,-781 260.25,-787 260.25,-787 260.25,-799 260.25,-799 260.25,-805 254.25,-811 248.25,-811"/>
<text text-anchor="middle" x="230.12" y="-789.5" font-family="Arial" font-size="10.00" fill="#eff1f5">(24, 55, 8)</text>
</g>
<!-- (24, 55, 8)_61280&#45;&gt;(24, 55, 8)_60124 -->
<g id="edge4" class="edge">
<title>(24, 55, 8)_61280&#45;&gt;(24, 55, 8)_60124</title>
<path fill="none" stroke="#4c4f69" d="M230.12,-862.4C230.12,-847.52 230.12,-826.2 230.12,-811.33"/>
</g>
<!-- Stable_(47, 32, 7)_1638 -->
<g id="node4" class="node">
<title>Stable_(47, 32, 7)_1638</title>
<path fill="#fe640b" stroke="black" d="M134.12,-723.25C134.12,-723.25 104.12,-723.25 104.12,-723.25 98.12,-723.25 92.12,-717.25 92.12,-711.25 92.12,-711.25 92.12,-699.25 92.12,-699.25 92.12,-693.25 98.12,-687.25 104.12,-687.25 104.12,-687.25 134.12,-687.25 134.12,-687.25 140.12,-687.25 146.12,-693.25 146.12,-699.25 146.12,-699.25 146.12,-711.25 146.12,-711.25 146.12,-717.25 140.12,-723.25 134.12,-723.25"/>
<text text-anchor="middle" x="119.12" y="-701.75" font-family="Arial" font-size="10.00" fill="#eff1f5">S(32, 7)</text>
</g>
<!-- (47, 32, 7)_1638&#45;&gt;Stable_(47, 32, 7)_1638 -->
<g id="edge3" class="edge">
<title>(47, 32, 7)_1638&#45;&gt;Stable_(47, 32, 7)_1638</title>
<path fill="none" stroke="#4c4f69" d="M139.07,-774.65C135.71,-763.14 131.23,-747.78 127.37,-734.53"/>
<polygon fill="#4c4f69" stroke="#4c4f69" points="130.76,-733.65 124.6,-725.03 124.04,-735.61 130.76,-733.65"/>
</g>
<!-- (25, 55, 8)_60087 -->
<g id="node6" class="node">
<title>(25, 55, 8)_60087</title>
<path fill="#04a5e5" stroke="black" d="M212.25,-723.25C212.25,-723.25 176,-723.25 176,-723.25 170,-723.25 164,-717.25 164,-711.25 164,-711.25 164,-699.25 164,-699.25 164,-693.25 170,-687.25 176,-687.25 176,-687.25 212.25,-687.25 212.25,-687.25 218.25,-687.25 224.25,-693.25 224.25,-699.25 224.25,-699.25 224.25,-711.25 224.25,-711.25 224.25,-717.25 218.25,-723.25 212.25,-723.25"/>
<text text-anchor="middle" x="194.12" y="-701.75" font-family="Arial" font-size="10.00" fill="#eff1f5">(25, 55, 8)</text>
</g>
<!-- (24, 55, 8)_60124&#45;&gt;(25, 55, 8)_60087 -->
<g id="edge5" class="edge">
<title>(24, 55, 8)_60124&#45;&gt;(25, 55, 8)_60087</title>
<path fill="none" stroke="#4c4f69" d="M222.84,-774.65C217.96,-763.02 211.43,-747.47 205.83,-734.13"/>
<polygon fill="#4c4f69" stroke="#4c4f69" points="209.08,-732.84 201.99,-724.97 202.63,-735.55 209.08,-732.84"/>
<text text-anchor="middle" x="219.85" y="-743.7" font-family="Arial Bold" font-size="14.00" fill="#4c4f69">E</text>
</g>
<!-- (24, 55, 8)_55154 -->
<g id="node24" class="node">
<title>(24, 55, 8)_55154</title>
<path fill="#04a5e5" stroke="black" d="M290.25,-723.25C290.25,-723.25 254,-723.25 254,-723.25 248,-723.25 242,-717.25 242,-711.25 242,-711.25 242,-699.25 242,-699.25 242,-693.25 248,-687.25 254,-687.25 254,-687.25 290.25,-687.25 290.25,-687.25 296.25,-687.25 302.25,-693.25 302.25,-699.25 302.25,-699.25 302.25,-711.25 302.25,-711.25 302.25,-717.25 296.25,-723.25 290.25,-723.25"/>
<text text-anchor="middle" x="272.12" y="-701.75" font-family="Arial" font-size="10.00" fill="#eff1f5">(24, 55, 8)</text>
</g>
<!-- (24, 55, 8)_60124&#45;&gt;(24, 55, 8)_55154 -->
<g id="edge23" class="edge">
<title>(24, 55, 8)_60124&#45;&gt;(24, 55, 8)_55154</title>
<path fill="none" stroke="#4c4f69" d="M238.62,-774.65C245.91,-759.77 256.36,-738.45 263.64,-723.58"/>
</g>
<!-- (26, 55, 8)_60065 -->
<g id="node7" class="node">
<title>(26, 55, 8)_60065</title>
<path fill="#04a5e5" stroke="black" d="M176.25,-635.5C176.25,-635.5 140,-635.5 140,-635.5 134,-635.5 128,-629.5 128,-623.5 128,-623.5 128,-611.5 128,-611.5 128,-605.5 134,-599.5 140,-599.5 140,-599.5 176.25,-599.5 176.25,-599.5 182.25,-599.5 188.25,-605.5 188.25,-611.5 188.25,-611.5 188.25,-623.5 188.25,-623.5 188.25,-629.5 182.25,-635.5 176.25,-635.5"/>
<text text-anchor="middle" x="158.12" y="-614" font-family="Arial" font-size="10.00" fill="#eff1f5">(26, 55, 8)</text>
</g>
<!-- (25, 55, 8)_60087&#45;&gt;(26, 55, 8)_60065 -->
<g id="edge6" class="edge">
<title>(25, 55, 8)_60087&#45;&gt;(26, 55, 8)_60065</title>
<path fill="none" stroke="#4c4f69" d="M186.84,-686.9C181.96,-675.27 175.43,-659.72 169.83,-646.38"/>
<polygon fill="#4c4f69" stroke="#4c4f69" points="173.08,-645.09 165.99,-637.22 166.63,-647.8 173.08,-645.09"/>
<text text-anchor="middle" x="183.85" y="-655.95" font-family="Arial Bold" font-size="14.00" fill="#4c4f69">E</text>
</g>
<!-- (27, 55, 8)_60044 -->
<g id="node8" class="node">
<title>(27, 55, 8)_60044</title>
<path fill="#04a5e5" stroke="black" d="M100.25,-547.75C100.25,-547.75 64,-547.75 64,-547.75 58,-547.75 52,-541.75 52,-535.75 52,-535.75 52,-523.75 52,-523.75 52,-517.75 58,-511.75 64,-511.75 64,-511.75 100.25,-511.75 100.25,-511.75 106.25,-511.75 112.25,-517.75 112.25,-523.75 112.25,-523.75 112.25,-535.75 112.25,-535.75 112.25,-541.75 106.25,-547.75 100.25,-547.75"/>
<text text-anchor="middle" x="82.12" y="-526.25" font-family="Arial" font-size="10.00" fill="#eff1f5">(27, 55, 8)</text>
</g>
<!-- (26, 55, 8)_60065&#45;&gt;(27, 55, 8)_60044 -->
<g id="edge7" class="edge">
<title>(26, 55, 8)_60065&#45;&gt;(27, 55, 8)_60044</title>
<path fill="none" stroke="#4c4f69" d="M142.75,-599.15C131.93,-586.94 117.27,-570.4 105.07,-556.64"/>
<polygon fill="#4c4f69" stroke="#4c4f69" points="107.74,-554.37 98.49,-549.21 102.5,-559.01 107.74,-554.37"/>
<text text-anchor="middle" x="131.43" y="-568.2" font-family="Arial Bold" font-size="14.00" fill="#4c4f69">E</text>
</g>
<!-- (26, 55, 8)_58970 -->
<g id="node17" class="node">
<title>(26, 55, 8)_58970</title>
<path fill="#04a5e5" stroke="black" d="M178.25,-547.75C178.25,-547.75 142,-547.75 142,-547.75 136,-547.75 130,-541.75 130,-535.75 130,-535.75 130,-523.75 130,-523.75 130,-517.75 136,-511.75 142,-511.75 142,-511.75 178.25,-511.75 178.25,-511.75 184.25,-511.75 190.25,-517.75 190.25,-523.75 190.25,-523.75 190.25,-535.75 190.25,-535.75 190.25,-541.75 184.25,-547.75 178.25,-547.75"/>
<text text-anchor="middle" x="160.12" y="-526.25" font-family="Arial" font-size="10.00" fill="#eff1f5">(26, 55, 8)</text>
</g>
<!-- (26, 55, 8)_60065&#45;&gt;(26, 55, 8)_58970 -->
<g id="edge16" class="edge">
<title>(26, 55, 8)_60065&#45;&gt;(26, 55, 8)_58970</title>
<path fill="none" stroke="#4c4f69" d="M158.53,-599.15C158.88,-584.27 159.37,-562.95 159.72,-548.08"/>
</g>
<!-- (28, 55, 8)_60019 -->
<g id="node9" class="node">
<title>(28, 55, 8)_60019</title>
<path fill="#d20f39" stroke="black" d="M100.25,-460C100.25,-460 64,-460 64,-460 58,-460 52,-454 52,-448 52,-448 52,-436 52,-436 52,-430 58,-424 64,-424 64,-424 100.25,-424 100.25,-424 106.25,-424 112.25,-430 112.25,-436 112.25,-436 112.25,-448 112.25,-448 112.25,-454 106.25,-460 100.25,-460"/>
<text text-anchor="middle" x="82.12" y="-438.5" font-family="Arial" font-size="10.00" fill="#eff1f5">(28, 55, 8)</text>
</g>
<!-- (27, 55, 8)_60044&#45;&gt;(28, 55, 8)_60019 -->
<g id="edge8" class="edge">
<title>(27, 55, 8)_60044&#45;&gt;(28, 55, 8)_60019</title>
<path fill="none" stroke="#4c4f69" d="M82.12,-511.4C82.12,-500.01 82.12,-484.84 82.12,-471.68"/>
<polygon fill="#4c4f69" stroke="#4c4f69" points="85.63,-471.84 82.13,-461.84 78.63,-471.84 85.63,-471.84"/>
<text text-anchor="middle" x="86.62" y="-480.45" font-family="Arial Bold" font-size="14.00" fill="#4c4f69">E</text>
</g>
<!-- (29, 55, 8)_59997 -->
<g id="node10" class="node">
<title>(29, 55, 8)_59997</title>
<path fill="#d20f39" stroke="black" d="M100.25,-372.25C100.25,-372.25 64,-372.25 64,-372.25 58,-372.25 52,-366.25 52,-360.25 52,-360.25 52,-348.25 52,-348.25 52,-342.25 58,-336.25 64,-336.25 64,-336.25 100.25,-336.25 100.25,-336.25 106.25,-336.25 112.25,-342.25 112.25,-348.25 112.25,-348.25 112.25,-360.25 112.25,-360.25 112.25,-366.25 106.25,-372.25 100.25,-372.25"/>
<text text-anchor="middle" x="82.12" y="-350.75" font-family="Arial" font-size="10.00" fill="#eff1f5">(29, 55, 8)</text>
</g>
<!-- (28, 55, 8)_60019&#45;&gt;(29, 55, 8)_59997 -->
<g id="edge9" class="edge">
<title>(28, 55, 8)_60019&#45;&gt;(29, 55, 8)_59997</title>
<path fill="none" stroke="#4c4f69" d="M82.12,-423.65C82.12,-412.26 82.12,-397.09 82.12,-383.93"/>
<polygon fill="#4c4f69" stroke="#4c4f69" points="85.63,-384.09 82.13,-374.09 78.63,-384.09 85.63,-384.09"/>
<text text-anchor="middle" x="86.62" y="-392.7" font-family="Arial Bold" font-size="14.00" fill="#4c4f69">E</text>
</g>
<!-- (30, 55, 8)_59093 -->
<g id="node11" class="node">
<title>(30, 55, 8)_59093</title>
<path fill="#d20f39" stroke="black" d="M100.25,-284.5C100.25,-284.5 64,-284.5 64,-284.5 58,-284.5 52,-278.5 52,-272.5 52,-272.5 52,-260.5 52,-260.5 52,-254.5 58,-248.5 64,-248.5 64,-248.5 100.25,-248.5 100.25,-248.5 106.25,-248.5 112.25,-254.5 112.25,-260.5 112.25,-260.5 112.25,-272.5 112.25,-272.5 112.25,-278.5 106.25,-284.5 100.25,-284.5"/>
<text text-anchor="middle" x="82.12" y="-263" font-family="Arial" font-size="10.00" fill="#eff1f5">(30, 55, 8)</text>
</g>
<!-- (29, 55, 8)_59997&#45;&gt;(30, 55, 8)_59093 -->
<g id="edge10" class="edge">
<title>(29, 55, 8)_59997&#45;&gt;(30, 55, 8)_59093</title>
<path fill="none" stroke="#4c4f69" d="M82.12,-335.9C82.12,-324.51 82.12,-309.34 82.12,-296.18"/>
<polygon fill="#4c4f69" stroke="#4c4f69" points="85.63,-296.34 82.13,-286.34 78.63,-296.34 85.63,-296.34"/>
<text text-anchor="middle" x="86.62" y="-304.95" font-family="Arial Bold" font-size="14.00" fill="#4c4f69">E</text>
</g>
<!-- (61, 26, 6)_4100 -->
<g id="node12" class="node">
<title>(61, 26, 6)_4100</title>
<path fill="#04a5e5" stroke="black" d="M48.25,-196.75C48.25,-196.75 12,-196.75 12,-196.75 6,-196.75 0,-190.75 0,-184.75 0,-184.75 0,-172.75 0,-172.75 0,-166.75 6,-160.75 12,-160.75 12,-160.75 48.25,-160.75 48.25,-160.75 54.25,-160.75 60.25,-166.75 60.25,-172.75 60.25,-172.75 60.25,-184.75 60.25,-184.75 60.25,-190.75 54.25,-196.75 48.25,-196.75"/>
<text text-anchor="middle" x="30.12" y="-175.25" font-family="Arial" font-size="10.00" fill="#eff1f5">(61, 26, 6)</text>
</g>
<!-- (30, 55, 8)_59093&#45;&gt;(61, 26, 6)_4100 -->
<g id="edge11" class="edge">
<title>(30, 55, 8)_59093&#45;&gt;(61, 26, 6)_4100</title>
<path fill="none" stroke="#4c4f69" d="M65.69,-238.39C57.49,-224.87 47.82,-208.93 40.63,-197.08"/>
<polygon fill="#4c4f69" stroke="#4c4f69" points="62.64,-240.12 70.82,-246.85 68.62,-236.49 62.64,-240.12"/>
<text text-anchor="middle" x="65.28" y="-217.2" font-family="Arial Bold" font-size="14.00" fill="#4c4f69">P</text>
</g>
<!-- (30, 55, 8)_55804 -->
<g id="node14" class="node">
<title>(30, 55, 8)_55804</title>
<path fill="#04a5e5" stroke="black" d="M126.25,-196.75C126.25,-196.75 90,-196.75 90,-196.75 84,-196.75 78,-190.75 78,-184.75 78,-184.75 78,-172.75 78,-172.75 78,-166.75 84,-160.75 90,-160.75 90,-160.75 126.25,-160.75 126.25,-160.75 132.25,-160.75 138.25,-166.75 138.25,-172.75 138.25,-172.75 138.25,-184.75 138.25,-184.75 138.25,-190.75 132.25,-196.75 126.25,-196.75"/>
<text text-anchor="middle" x="108.12" y="-175.25" font-family="Arial" font-size="10.00" fill="#eff1f5">(30, 55, 8)</text>
</g>
<!-- (30, 55, 8)_59093&#45;&gt;(30, 55, 8)_55804 -->
<g id="edge13" class="edge">
<title>(30, 55, 8)_59093&#45;&gt;(30, 55, 8)_55804</title>
<path fill="none" stroke="#4c4f69" d="M87.39,-248.15C91.9,-233.27 98.36,-211.95 102.87,-197.08"/>
</g>
<!-- Stable_(61, 26, 6)_4100 -->
<g id="node13" class="node">
<title>Stable_(61, 26, 6)_4100</title>
<path fill="#fe640b" stroke="black" d="M45.12,-109C45.12,-109 15.12,-109 15.12,-109 9.13,-109 3.12,-103 3.12,-97 3.12,-97 3.12,-85 3.12,-85 3.12,-79 9.12,-73 15.12,-73 15.12,-73 45.12,-73 45.12,-73 51.12,-73 57.12,-79 57.12,-85 57.12,-85 57.12,-97 57.12,-97 57.12,-103 51.12,-109 45.12,-109"/>
<text text-anchor="middle" x="30.12" y="-87.5" font-family="Arial" font-size="10.00" fill="#eff1f5">S(26, 6)</text>
</g>
<!-- (61, 26, 6)_4100&#45;&gt;Stable_(61, 26, 6)_4100 -->
<g id="edge12" class="edge">
<title>(61, 26, 6)_4100&#45;&gt;Stable_(61, 26, 6)_4100</title>
<path fill="none" stroke="#4c4f69" d="M30.12,-160.4C30.12,-149.01 30.12,-133.84 30.12,-120.68"/>
<polygon fill="#4c4f69" stroke="#4c4f69" points="33.63,-120.84 30.13,-110.84 26.63,-120.84 33.63,-120.84"/>
</g>
<!-- (29, 55, 8)_51870 -->
<g id="node15" class="node">
<title>(29, 55, 8)_51870</title>
<path fill="#04a5e5" stroke="black" d="M126.25,-109C126.25,-109 90,-109 90,-109 84,-109 78,-103 78,-97 78,-97 78,-85 78,-85 78,-79 84,-73 90,-73 90,-73 126.25,-73 126.25,-73 132.25,-73 138.25,-79 138.25,-85 138.25,-85 138.25,-97 138.25,-97 138.25,-103 132.25,-109 126.25,-109"/>
<text text-anchor="middle" x="108.12" y="-87.5" font-family="Arial" font-size="10.00" fill="#eff1f5">(29, 55, 8)</text>
</g>
<!-- (30, 55, 8)_55804&#45;&gt;(29, 55, 8)_51870 -->
<g id="edge14" class="edge">
<title>(30, 55, 8)_55804&#45;&gt;(29, 55, 8)_51870</title>
<path fill="none" stroke="#4c4f69" d="M108.12,-149.04C108.12,-135.88 108.12,-120.71 108.12,-109.33"/>
<polygon fill="#4c4f69" stroke="#4c4f69" points="104.63,-148.88 108.13,-158.88 111.63,-148.88 104.63,-148.88"/>
<text text-anchor="middle" x="112.62" y="-129.45" font-family="Arial Bold" font-size="14.00" fill="#4c4f69">E</text>
</g>
<!-- C2_(29, 55, 8)_51870 -->
<g id="node16" class="node">
<title>C2_(29, 55, 8)_51870</title>
<path fill="#fe640b" stroke="black" d="M124.38,-36C124.38,-36 91.88,-36 91.88,-36 85.88,-36 79.88,-30 79.88,-24 79.88,-24 79.88,-12 79.88,-12 79.88,-6 85.88,0 91.88,0 91.88,0 124.38,0 124.38,0 130.38,0 136.38,-6 136.38,-12 136.38,-12 136.38,-24 136.38,-24 136.38,-30 130.38,-36 124.38,-36"/>
<text text-anchor="middle" x="108.12" y="-14.5" font-family="Arial" font-size="10.00" fill="#eff1f5">C2(28, 7)</text>
</g>
<!-- (29, 55, 8)_51870&#45;&gt;C2_(29, 55, 8)_51870 -->
<g id="edge15" class="edge">
<title>(29, 55, 8)_51870&#45;&gt;C2_(29, 55, 8)_51870</title>
<path fill="none" stroke="#4c4f69" d="M108.12,-72.81C108.12,-65.23 108.12,-56.1 108.12,-47.54"/>
<polygon fill="#4c4f69" stroke="#4c4f69" points="111.63,-47.54 108.13,-37.54 104.63,-47.54 111.63,-47.54"/>
</g>
<!-- (53, 30, 6)_2509 -->
<g id="node18" class="node">
<title>(53, 30, 6)_2509</title>
<path fill="#04a5e5" stroke="black" d="M178.25,-460C178.25,-460 142,-460 142,-460 136,-460 130,-454 130,-448 130,-448 130,-436 130,-436 130,-430 136,-424 142,-424 142,-424 178.25,-424 178.25,-424 184.25,-424 190.25,-430 190.25,-436 190.25,-436 190.25,-448 190.25,-448 190.25,-454 184.25,-460 178.25,-460"/>
<text text-anchor="middle" x="160.12" y="-438.5" font-family="Arial" font-size="10.00" fill="#eff1f5">(53, 30, 6)</text>
</g>
<!-- (26, 55, 8)_58970&#45;&gt;(53, 30, 6)_2509 -->
<g id="edge17" class="edge">
<title>(26, 55, 8)_58970&#45;&gt;(53, 30, 6)_2509</title>
<path fill="none" stroke="#4c4f69" d="M160.12,-500.04C160.12,-486.88 160.12,-471.71 160.12,-460.33"/>
<polygon fill="#4c4f69" stroke="#4c4f69" points="156.63,-499.88 160.13,-509.88 163.63,-499.88 156.63,-499.88"/>
<text text-anchor="middle" x="164.62" y="-480.45" font-family="Arial Bold" font-size="14.00" fill="#4c4f69">P</text>
</g>
<!-- (26, 55, 8)_55389 -->
<g id="node20" class="node">
<title>(26, 55, 8)_55389</title>
<path fill="#04a5e5" stroke="black" d="M256.25,-460C256.25,-460 220,-460 220,-460 214,-460 208,-454 208,-448 208,-448 208,-436 208,-436 208,-430 214,-424 220,-424 220,-424 256.25,-424 256.25,-424 262.25,-424 268.25,-430 268.25,-436 268.25,-436 268.25,-448 268.25,-448 268.25,-454 262.25,-460 256.25,-460"/>
<text text-anchor="middle" x="238.12" y="-438.5" font-family="Arial" font-size="10.00" fill="#eff1f5">(26, 55, 8)</text>
</g>
<!-- (26, 55, 8)_58970&#45;&gt;(26, 55, 8)_55389 -->
<g id="edge19" class="edge">
<title>(26, 55, 8)_58970&#45;&gt;(26, 55, 8)_55389</title>
<path fill="none" stroke="#4c4f69" d="M175.91,-511.4C189.44,-496.52 208.84,-475.2 222.36,-460.33"/>
</g>
<!-- Stable_(53, 30, 6)_2509 -->
<g id="node19" class="node">
<title>Stable_(53, 30, 6)_2509</title>
<path fill="#fe640b" stroke="black" d="M175.12,-372.25C175.12,-372.25 145.12,-372.25 145.12,-372.25 139.12,-372.25 133.12,-366.25 133.12,-360.25 133.12,-360.25 133.12,-348.25 133.12,-348.25 133.12,-342.25 139.12,-336.25 145.12,-336.25 145.12,-336.25 175.12,-336.25 175.12,-336.25 181.12,-336.25 187.12,-342.25 187.12,-348.25 187.12,-348.25 187.12,-360.25 187.12,-360.25 187.12,-366.25 181.12,-372.25 175.12,-372.25"/>
<text text-anchor="middle" x="160.12" y="-350.75" font-family="Arial" font-size="10.00" fill="#eff1f5">S(30, 6)</text>
</g>
<!-- (53, 30, 6)_2509&#45;&gt;Stable_(53, 30, 6)_2509 -->
<g id="edge18" class="edge">
<title>(53, 30, 6)_2509&#45;&gt;Stable_(53, 30, 6)_2509</title>
<path fill="none" stroke="#4c4f69" d="M160.12,-423.65C160.12,-412.26 160.12,-397.09 160.12,-383.93"/>
<polygon fill="#4c4f69" stroke="#4c4f69" points="163.63,-384.09 160.13,-374.09 156.63,-384.09 163.63,-384.09"/>
</g>
<!-- (25, 55, 8)_&#45;1 -->
<g id="node21" class="node">
<title>(25, 55, 8)_&#45;1</title>
<path fill="#7c7f93" stroke="black" d="M255.25,-372.25C255.25,-372.25 219,-372.25 219,-372.25 213,-372.25 207,-366.25 207,-360.25 207,-360.25 207,-348.25 207,-348.25 207,-342.25 213,-336.25 219,-336.25 219,-336.25 255.25,-336.25 255.25,-336.25 261.25,-336.25 267.25,-342.25 267.25,-348.25 267.25,-348.25 267.25,-360.25 267.25,-360.25 267.25,-366.25 261.25,-372.25 255.25,-372.25"/>
<text text-anchor="middle" x="237.12" y="-350.75" font-family="Arial" font-size="10.00" fill="#eff1f5">(25, 55, 8)</text>
</g>
<!-- (26, 55, 8)_55389&#45;&gt;(25, 55, 8)_&#45;1 -->
<g id="edge20" class="edge">
<title>(26, 55, 8)_55389&#45;&gt;(25, 55, 8)_&#45;1</title>
<path fill="none" stroke="#4c4f69" d="M237.79,-412.29C237.64,-399.13 237.46,-383.96 237.33,-372.58"/>
<polygon fill="#4c4f69" stroke="#4c4f69" points="234.29,-412.18 237.9,-422.13 241.29,-412.09 234.29,-412.18"/>
<text text-anchor="middle" x="242.21" y="-392.7" font-family="Arial Bold" font-size="14.00" fill="#4c4f69">E</text>
</g>
<!-- (26, 55, 8)_45385 -->
<g id="node22" class="node">
<title>(26, 55, 8)_45385</title>
<path fill="#04a5e5" stroke="black" d="M333.25,-372.25C333.25,-372.25 297,-372.25 297,-372.25 291,-372.25 285,-366.25 285,-360.25 285,-360.25 285,-348.25 285,-348.25 285,-342.25 291,-336.25 297,-336.25 297,-336.25 333.25,-336.25 333.25,-336.25 339.25,-336.25 345.25,-342.25 345.25,-348.25 345.25,-348.25 345.25,-360.25 345.25,-360.25 345.25,-366.25 339.25,-372.25 333.25,-372.25"/>
<text text-anchor="middle" x="315.12" y="-350.75" font-family="Arial" font-size="10.00" fill="#eff1f5">(26, 55, 8)</text>
</g>
<!-- (26, 55, 8)_55389&#45;&gt;(26, 55, 8)_45385 -->
<g id="edge21" class="edge">
<title>(26, 55, 8)_55389&#45;&gt;(26, 55, 8)_45385</title>
<path fill="none" stroke="#4c4f69" d="M253.71,-423.65C267.07,-408.77 286.21,-387.45 299.57,-372.58"/>
</g>
<!-- Stable_(26, 55, 8)_45385 -->
<g id="node23" class="node">
<title>Stable_(26, 55, 8)_45385</title>
<path fill="#fe640b" stroke="black" d="M330.12,-284.5C330.12,-284.5 300.12,-284.5 300.12,-284.5 294.12,-284.5 288.12,-278.5 288.12,-272.5 288.12,-272.5 288.12,-260.5 288.12,-260.5 288.12,-254.5 294.12,-248.5 300.12,-248.5 300.12,-248.5 330.12,-248.5 330.12,-248.5 336.12,-248.5 342.12,-254.5 342.12,-260.5 342.12,-260.5 342.12,-272.5 342.12,-272.5 342.12,-278.5 336.12,-284.5 330.12,-284.5"/>
<text text-anchor="middle" x="315.12" y="-263" font-family="Arial" font-size="10.00" fill="#eff1f5">S(55, 8)</text>
</g>
<!-- (26, 55, 8)_45385&#45;&gt;Stable_(26, 55, 8)_45385 -->
<g id="edge22" class="edge">
<title>(26, 55, 8)_45385&#45;&gt;Stable_(26, 55, 8)_45385</title>
<path fill="none" stroke="#4c4f69" d="M315.12,-335.9C315.12,-324.51 315.12,-309.34 315.12,-296.18"/>
<polygon fill="#4c4f69" stroke="#4c4f69" points="318.63,-296.34 315.13,-286.34 311.63,-296.34 318.63,-296.34"/>
</g>
<!-- (23, 55, 8)_46156 -->
<g id="node25" class="node">
<title>(23, 55, 8)_46156</title>
<path fill="#04a5e5" stroke="black" d="M254.25,-635.5C254.25,-635.5 218,-635.5 218,-635.5 212,-635.5 206,-629.5 206,-623.5 206,-623.5 206,-611.5 206,-611.5 206,-605.5 212,-599.5 218,-599.5 218,-599.5 254.25,-599.5 254.25,-599.5 260.25,-599.5 266.25,-605.5 266.25,-611.5 266.25,-611.5 266.25,-623.5 266.25,-623.5 266.25,-629.5 260.25,-635.5 254.25,-635.5"/>
<text text-anchor="middle" x="236.12" y="-614" font-family="Arial" font-size="10.00" fill="#eff1f5">(23, 55, 8)</text>
</g>
<!-- (24, 55, 8)_55154&#45;&gt;(23, 55, 8)_46156 -->
<g id="edge24" class="edge">
<title>(24, 55, 8)_55154&#45;&gt;(23, 55, 8)_46156</title>
<path fill="none" stroke="#4c4f69" d="M260.41,-676.34C254.81,-663 248.28,-647.44 243.4,-635.83"/>
<polygon fill="#4c4f69" stroke="#4c4f69" points="257.16,-677.64 264.25,-685.5 263.61,-674.93 257.16,-677.64"/>
<text text-anchor="middle" x="261.85" y="-655.95" font-family="Arial Bold" font-size="14.00" fill="#4c4f69">E</text>
</g>
<!-- (24, 55, 8)_45890 -->
<g id="node27" class="node">
<title>(24, 55, 8)_45890</title>
<path fill="#04a5e5" stroke="black" d="M332.25,-635.5C332.25,-635.5 296,-635.5 296,-635.5 290,-635.5 284,-629.5 284,-623.5 284,-623.5 284,-611.5 284,-611.5 284,-605.5 290,-599.5 296,-599.5 296,-599.5 332.25,-599.5 332.25,-599.5 338.25,-599.5 344.25,-605.5 344.25,-611.5 344.25,-611.5 344.25,-623.5 344.25,-623.5 344.25,-629.5 338.25,-635.5 332.25,-635.5"/>
<text text-anchor="middle" x="314.12" y="-614" font-family="Arial" font-size="10.00" fill="#eff1f5">(24, 55, 8)</text>
</g>
<!-- (24, 55, 8)_55154&#45;&gt;(24, 55, 8)_45890 -->
<g id="edge26" class="edge">
<title>(24, 55, 8)_55154&#45;&gt;(24, 55, 8)_45890</title>
<path fill="none" stroke="#4c4f69" d="M280.62,-686.9C287.91,-672.02 298.36,-650.7 305.64,-635.83"/>
</g>
<!-- Stable_(23, 55, 8)_46156 -->
<g id="node26" class="node">
<title>Stable_(23, 55, 8)_46156</title>
<path fill="#fe640b" stroke="black" d="M251.12,-547.75C251.12,-547.75 221.12,-547.75 221.12,-547.75 215.12,-547.75 209.12,-541.75 209.12,-535.75 209.12,-535.75 209.12,-523.75 209.12,-523.75 209.12,-517.75 215.12,-511.75 221.12,-511.75 221.12,-511.75 251.12,-511.75 251.12,-511.75 257.12,-511.75 263.12,-517.75 263.12,-523.75 263.12,-523.75 263.12,-535.75 263.12,-535.75 263.12,-541.75 257.12,-547.75 251.12,-547.75"/>
<text text-anchor="middle" x="236.12" y="-526.25" font-family="Arial" font-size="10.00" fill="#eff1f5">S(55, 8)</text>
</g>
<!-- (23, 55, 8)_46156&#45;&gt;Stable_(23, 55, 8)_46156 -->
<g id="edge25" class="edge">
<title>(23, 55, 8)_46156&#45;&gt;Stable_(23, 55, 8)_46156</title>
<path fill="none" stroke="#4c4f69" d="M236.12,-599.15C236.12,-587.76 236.12,-572.59 236.12,-559.43"/>
<polygon fill="#4c4f69" stroke="#4c4f69" points="239.63,-559.59 236.13,-549.59 232.63,-559.59 239.63,-559.59"/>
</g>
<!-- Stable_(24, 55, 8)_45890 -->
<g id="node28" class="node">
<title>Stable_(24, 55, 8)_45890</title>
<path fill="#fe640b" stroke="black" d="M328.12,-547.75C328.12,-547.75 298.12,-547.75 298.12,-547.75 292.12,-547.75 286.12,-541.75 286.12,-535.75 286.12,-535.75 286.12,-523.75 286.12,-523.75 286.12,-517.75 292.12,-511.75 298.12,-511.75 298.12,-511.75 328.12,-511.75 328.12,-511.75 334.12,-511.75 340.12,-517.75 340.12,-523.75 340.12,-523.75 340.12,-535.75 340.12,-535.75 340.12,-541.75 334.12,-547.75 328.12,-547.75"/>
<text text-anchor="middle" x="313.12" y="-526.25" font-family="Arial" font-size="10.00" fill="#eff1f5">S(55, 8)</text>
</g>
<!-- (24, 55, 8)_45890&#45;&gt;Stable_(24, 55, 8)_45890 -->
<g id="edge27" class="edge">
<title>(24, 55, 8)_45890&#45;&gt;Stable_(24, 55, 8)_45890</title>
<path fill="none" stroke="#4c4f69" d="M313.92,-599.15C313.79,-587.76 313.61,-572.59 313.46,-559.43"/>
<polygon fill="#4c4f69" stroke="#4c4f69" points="316.96,-559.55 313.34,-549.59 309.96,-559.63 316.96,-559.55"/>
</g>
<!-- (23, 55, 9)_64350 -->
<g id="node31" class="node">
<title>(23, 55, 9)_64350</title>
<path fill="#40a02b" stroke="black" d="M519.25,-811C519.25,-811 483,-811 483,-811 477,-811 471,-805 471,-799 471,-799 471,-787 471,-787 471,-781 477,-775 483,-775 483,-775 519.25,-775 519.25,-775 525.25,-775 531.25,-781 531.25,-787 531.25,-787 531.25,-799 531.25,-799 531.25,-805 525.25,-811 519.25,-811"/>
<text text-anchor="middle" x="501.12" y="-789.5" font-family="Arial" font-size="10.00" fill="#eff1f5">(23, 55, 9)</text>
</g>
<!-- (24, 55, 9)_64379&#45;&gt;(23, 55, 9)_64350 -->
<g id="edge30" class="edge">
<title>(24, 55, 9)_64379&#45;&gt;(23, 55, 9)_64350</title>
<path fill="none" stroke="#4c4f69" d="M453.3,-853.43C464.31,-839.75 477.46,-823.41 487.18,-811.33"/>
<polygon fill="#4c4f69" stroke="#4c4f69" points="450.58,-851.23 447.04,-861.22 456.03,-855.62 450.58,-851.23"/>
<text text-anchor="middle" x="477.31" y="-831.45" font-family="Arial Bold" font-size="14.00" fill="#4c4f69">E</text>
</g>
<!-- (22, 55, 9)_64336 -->
<g id="node32" class="node">
<title>(22, 55, 9)_64336</title>
<path fill="#40a02b" stroke="black" d="M537.25,-723.25C537.25,-723.25 501,-723.25 501,-723.25 495,-723.25 489,-717.25 489,-711.25 489,-711.25 489,-699.25 489,-699.25 489,-693.25 495,-687.25 501,-687.25 501,-687.25 537.25,-687.25 537.25,-687.25 543.25,-687.25 549.25,-693.25 549.25,-699.25 549.25,-699.25 549.25,-711.25 549.25,-711.25 549.25,-717.25 543.25,-723.25 537.25,-723.25"/>
<text text-anchor="middle" x="519.12" y="-701.75" font-family="Arial" font-size="10.00" fill="#eff1f5">(22, 55, 9)</text>
</g>
<!-- (23, 55, 9)_64350&#45;&gt;(22, 55, 9)_64336 -->
<g id="edge31" class="edge">
<title>(23, 55, 9)_64350&#45;&gt;(22, 55, 9)_64336</title>
<path fill="none" stroke="#4c4f69" d="M507.07,-763.69C509.85,-750.44 513.07,-735.08 515.49,-723.58"/>
<polygon fill="#4c4f69" stroke="#4c4f69" points="503.71,-762.66 505.08,-773.17 510.56,-764.1 503.71,-762.66"/>
<text text-anchor="middle" x="516.24" y="-743.7" font-family="Arial Bold" font-size="14.00" fill="#4c4f69">E</text>
</g>
<!-- (22, 38, 5)_60169 -->
<g id="node33" class="node">
<title>(22, 38, 5)_60169</title>
<path fill="#40a02b" stroke="black" d="M481.25,-635.5C481.25,-635.5 445,-635.5 445,-635.5 439,-635.5 433,-629.5 433,-623.5 433,-623.5 433,-611.5 433,-611.5 433,-605.5 439,-599.5 445,-599.5 445,-599.5 481.25,-599.5 481.25,-599.5 487.25,-599.5 493.25,-605.5 493.25,-611.5 493.25,-611.5 493.25,-623.5 493.25,-623.5 493.25,-629.5 487.25,-635.5 481.25,-635.5"/>
<text text-anchor="middle" x="463.12" y="-614" font-family="Arial" font-size="10.00" fill="#eff1f5">(22, 38, 5)</text>
</g>
<!-- (22, 55, 9)_64336&#45;&gt;(22, 38, 5)_60169 -->
<g id="edge32" class="edge">
<title>(22, 55, 9)_64336&#45;&gt;(22, 38, 5)_60169</title>
<path fill="none" stroke="#4c4f69" d="M507.79,-686.9C498.08,-672.02 484.15,-650.7 474.44,-635.83"/>
</g>
<!-- (60, 17, 4)_3857 -->
<g id="node42" class="node">
<title>(60, 17, 4)_3857</title>
<path fill="#04a5e5" stroke="black" d="M559.25,-635.5C559.25,-635.5 523,-635.5 523,-635.5 517,-635.5 511,-629.5 511,-623.5 511,-623.5 511,-611.5 511,-611.5 511,-605.5 517,-599.5 523,-599.5 523,-599.5 559.25,-599.5 559.25,-599.5 565.25,-599.5 571.25,-605.5 571.25,-611.5 571.25,-611.5 571.25,-623.5 571.25,-623.5 571.25,-629.5 565.25,-635.5 559.25,-635.5"/>
<text text-anchor="middle" x="541.12" y="-614" font-family="Arial" font-size="10.00" fill="#eff1f5">(60, 17, 4)</text>
</g>
<!-- (22, 55, 9)_64336&#45;&gt;(60, 17, 4)_3857 -->
<g id="edge41" class="edge">
<title>(22, 55, 9)_64336&#45;&gt;(60, 17, 4)_3857</title>
<path fill="none" stroke="#4c4f69" d="M523.58,-686.9C527.39,-672.02 532.86,-650.7 536.68,-635.83"/>
</g>
<!-- (22, 55, 9)_60195 -->
<g id="node44" class="node">
<title>(22, 55, 9)_60195</title>
<path fill="#04a5e5" stroke="black" d="M637.25,-635.5C637.25,-635.5 601,-635.5 601,-635.5 595,-635.5 589,-629.5 589,-623.5 589,-623.5 589,-611.5 589,-611.5 589,-605.5 595,-599.5 601,-599.5 601,-599.5 637.25,-599.5 637.25,-599.5 643.25,-599.5 649.25,-605.5 649.25,-611.5 649.25,-611.5 649.25,-623.5 649.25,-623.5 649.25,-629.5 643.25,-635.5 637.25,-635.5"/>
<text text-anchor="middle" x="619.12" y="-614" font-family="Arial" font-size="10.00" fill="#eff1f5">(22, 55, 9)</text>
</g>
<!-- (22, 55, 9)_64336&#45;&gt;(22, 55, 9)_60195 -->
<g id="edge43" class="edge">
<title>(22, 55, 9)_64336&#45;&gt;(22, 55, 9)_60195</title>
<path fill="none" stroke="#4c4f69" d="M539.36,-686.9C556.71,-672.02 581.58,-650.7 598.92,-635.83"/>
</g>
<!-- (23, 38, 5)_51717 -->
<g id="node34" class="node">
<title>(23, 38, 5)_51717</title>
<path fill="#04a5e5" stroke="black" d="M406.25,-547.75C406.25,-547.75 370,-547.75 370,-547.75 364,-547.75 358,-541.75 358,-535.75 358,-535.75 358,-523.75 358,-523.75 358,-517.75 364,-511.75 370,-511.75 370,-511.75 406.25,-511.75 406.25,-511.75 412.25,-511.75 418.25,-517.75 418.25,-523.75 418.25,-523.75 418.25,-535.75 418.25,-535.75 418.25,-541.75 412.25,-547.75 406.25,-547.75"/>
<text text-anchor="middle" x="388.12" y="-526.25" font-family="Arial" font-size="10.00" fill="#eff1f5">(23, 38, 5)</text>
</g>
<!-- (22, 38, 5)_60169&#45;&gt;(23, 38, 5)_51717 -->
<g id="edge33" class="edge">
<title>(22, 38, 5)_60169&#45;&gt;(23, 38, 5)_51717</title>
<path fill="none" stroke="#4c4f69" d="M447.95,-599.15C437.27,-586.94 422.81,-570.4 410.77,-556.64"/>
<polygon fill="#4c4f69" stroke="#4c4f69" points="413.49,-554.44 404.28,-549.22 408.23,-559.05 413.49,-554.44"/>
<text text-anchor="middle" x="436.84" y="-568.2" font-family="Arial Bold" font-size="14.00" fill="#4c4f69">E</text>
</g>
<!-- (22, 38, 5)_54859 -->
<g id="node37" class="node">
<title>(22, 38, 5)_54859</title>
<path fill="#04a5e5" stroke="black" d="M484.25,-547.75C484.25,-547.75 448,-547.75 448,-547.75 442,-547.75 436,-541.75 436,-535.75 436,-535.75 436,-523.75 436,-523.75 436,-517.75 442,-511.75 448,-511.75 448,-511.75 484.25,-511.75 484.25,-511.75 490.25,-511.75 496.25,-517.75 496.25,-523.75 496.25,-523.75 496.25,-535.75 496.25,-535.75 496.25,-541.75 490.25,-547.75 484.25,-547.75"/>
<text text-anchor="middle" x="466.12" y="-526.25" font-family="Arial" font-size="10.00" fill="#eff1f5">(22, 38, 5)</text>
</g>
<!-- (22, 38, 5)_60169&#45;&gt;(22, 38, 5)_54859 -->
<g id="edge36" class="edge">
<title>(22, 38, 5)_60169&#45;&gt;(22, 38, 5)_54859</title>
<path fill="none" stroke="#4c4f69" d="M463.73,-599.15C464.25,-584.27 465,-562.95 465.52,-548.08"/>
</g>
<!-- Stable_(23, 38, 5)_51717 -->
<g id="node35" class="node">
<title>Stable_(23, 38, 5)_51717</title>
<path fill="#fe640b" stroke="black" d="M330.12,-460C330.12,-460 300.12,-460 300.12,-460 294.12,-460 288.12,-454 288.12,-448 288.12,-448 288.12,-436 288.12,-436 288.12,-430 294.12,-424 300.12,-424 300.12,-424 330.12,-424 330.12,-424 336.12,-424 342.12,-430 342.12,-436 342.12,-436 342.12,-448 342.12,-448 342.12,-454 336.12,-460 330.12,-460"/>
<text text-anchor="middle" x="315.12" y="-438.5" font-family="Arial" font-size="10.00" fill="#eff1f5">S(38, 5)</text>
</g>
<!-- (23, 38, 5)_51717&#45;&gt;Stable_(23, 38, 5)_51717 -->
<g id="edge34" class="edge">
<title>(23, 38, 5)_51717&#45;&gt;Stable_(23, 38, 5)_51717</title>
<path fill="none" stroke="#4c4f69" d="M373.35,-511.4C362.96,-499.19 348.88,-482.65 337.17,-468.89"/>
<polygon fill="#4c4f69" stroke="#4c4f69" points="340,-466.83 330.86,-461.48 334.67,-471.36 340,-466.83"/>
</g>
<!-- C2_(23, 38, 5)_51717 -->
<g id="node36" class="node">
<title>C2_(23, 38, 5)_51717</title>
<path fill="#fe640b" stroke="black" d="M404.38,-460C404.38,-460 371.88,-460 371.88,-460 365.88,-460 359.88,-454 359.88,-448 359.88,-448 359.88,-436 359.88,-436 359.88,-430 365.88,-424 371.88,-424 371.88,-424 404.38,-424 404.38,-424 410.38,-424 416.38,-430 416.38,-436 416.38,-436 416.38,-448 416.38,-448 416.38,-454 410.38,-460 404.38,-460"/>
<text text-anchor="middle" x="388.12" y="-438.5" font-family="Arial" font-size="10.00" fill="#eff1f5">C2(17, 4)</text>
</g>
<!-- (23, 38, 5)_51717&#45;&gt;C2_(23, 38, 5)_51717 -->
<g id="edge35" class="edge">
<title>(23, 38, 5)_51717&#45;&gt;C2_(23, 38, 5)_51717</title>
<path fill="none" stroke="#4c4f69" d="M388.12,-511.4C388.12,-500.01 388.12,-484.84 388.12,-471.68"/>
<polygon fill="#4c4f69" stroke="#4c4f69" points="391.63,-471.84 388.13,-461.84 384.63,-471.84 391.63,-471.84"/>
</g>
<!-- (21, 38, 5)_46539 -->
<g id="node38" class="node">
<title>(21, 38, 5)_46539</title>
<path fill="#04a5e5" stroke="black" d="M482.25,-460C482.25,-460 446,-460 446,-460 440,-460 434,-454 434,-448 434,-448 434,-436 434,-436 434,-430 440,-424 446,-424 446,-424 482.25,-424 482.25,-424 488.25,-424 494.25,-430 494.25,-436 494.25,-436 494.25,-448 494.25,-448 494.25,-454 488.25,-460 482.25,-460"/>
<text text-anchor="middle" x="464.12" y="-438.5" font-family="Arial" font-size="10.00" fill="#eff1f5">(21, 38, 5)</text>
</g>
<!-- (22, 38, 5)_54859&#45;&gt;(21, 38, 5)_46539 -->
<g id="edge37" class="edge">
<title>(22, 38, 5)_54859&#45;&gt;(21, 38, 5)_46539</title>
<path fill="none" stroke="#4c4f69" d="M465.46,-500.04C465.15,-486.88 464.79,-471.71 464.53,-460.33"/>
<polygon fill="#4c4f69" stroke="#4c4f69" points="461.95,-499.97 465.68,-509.88 468.95,-499.81 461.95,-499.97"/>
<text text-anchor="middle" x="469.8" y="-480.45" font-family="Arial Bold" font-size="14.00" fill="#4c4f69">E</text>
</g>
<!-- (22, 38, 5)_46287 -->
<g id="node40" class="node">
<title>(22, 38, 5)_46287</title>
<path fill="#04a5e5" stroke="black" d="M560.25,-460C560.25,-460 524,-460 524,-460 518,-460 512,-454 512,-448 512,-448 512,-436 512,-436 512,-430 518,-424 524,-424 524,-424 560.25,-424 560.25,-424 566.25,-424 572.25,-430 572.25,-436 572.25,-436 572.25,-448 572.25,-448 572.25,-454 566.25,-460 560.25,-460"/>
<text text-anchor="middle" x="542.12" y="-438.5" font-family="Arial" font-size="10.00" fill="#eff1f5">(22, 38, 5)</text>
</g>
<!-- (22, 38, 5)_54859&#45;&gt;(22, 38, 5)_46287 -->
<g id="edge39" class="edge">
<title>(22, 38, 5)_54859&#45;&gt;(22, 38, 5)_46287</title>
<path fill="none" stroke="#4c4f69" d="M481.5,-511.4C494.69,-496.52 513.59,-475.2 526.77,-460.33"/>
</g>
<!-- Stable_(21, 38, 5)_46539 -->
<g id="node39" class="node">
<title>Stable_(21, 38, 5)_46539</title>
<path fill="#fe640b" stroke="black" d="M479.12,-372.25C479.12,-372.25 449.12,-372.25 449.12,-372.25 443.12,-372.25 437.12,-366.25 437.12,-360.25 437.12,-360.25 437.12,-348.25 437.12,-348.25 437.12,-342.25 443.12,-336.25 449.12,-336.25 449.12,-336.25 479.12,-336.25 479.12,-336.25 485.12,-336.25 491.12,-342.25 491.12,-348.25 491.12,-348.25 491.12,-360.25 491.12,-360.25 491.12,-366.25 485.12,-372.25 479.12,-372.25"/>
<text text-anchor="middle" x="464.12" y="-350.75" font-family="Arial" font-size="10.00" fill="#eff1f5">S(38, 5)</text>
</g>
<!-- (21, 38, 5)_46539&#45;&gt;Stable_(21, 38, 5)_46539 -->
<g id="edge38" class="edge">
<title>(21, 38, 5)_46539&#45;&gt;Stable_(21, 38, 5)_46539</title>
<path fill="none" stroke="#4c4f69" d="M464.12,-423.65C464.12,-412.26 464.12,-397.09 464.12,-383.93"/>
<polygon fill="#4c4f69" stroke="#4c4f69" points="467.63,-384.09 464.13,-374.09 460.63,-384.09 467.63,-384.09"/>
</g>
<!-- Stable_(22, 38, 5)_46287 -->
<g id="node41" class="node">
<title>Stable_(22, 38, 5)_46287</title>
<path fill="#fe640b" stroke="black" d="M557.12,-372.25C557.12,-372.25 527.12,-372.25 527.12,-372.25 521.12,-372.25 515.12,-366.25 515.12,-360.25 515.12,-360.25 515.12,-348.25 515.12,-348.25 515.12,-342.25 521.12,-336.25 527.12,-336.25 527.12,-336.25 557.12,-336.25 557.12,-336.25 563.12,-336.25 569.12,-342.25 569.12,-348.25 569.12,-348.25 569.12,-360.25 569.12,-360.25 569.12,-366.25 563.12,-372.25 557.12,-372.25"/>
<text text-anchor="middle" x="542.12" y="-350.75" font-family="Arial" font-size="10.00" fill="#eff1f5">S(38, 5)</text>
</g>
<!-- (22, 38, 5)_46287&#45;&gt;Stable_(22, 38, 5)_46287 -->
<g id="edge40" class="edge">
<title>(22, 38, 5)_46287&#45;&gt;Stable_(22, 38, 5)_46287</title>
<path fill="none" stroke="#4c4f69" d="M542.12,-423.65C542.12,-412.26 542.12,-397.09 542.12,-383.93"/>
<polygon fill="#4c4f69" stroke="#4c4f69" points="545.63,-384.09 542.13,-374.09 538.63,-384.09 545.63,-384.09"/>
</g>
<!-- Stable_(60, 17, 4)_3857 -->
<g id="node43" class="node">
<title>Stable_(60, 17, 4)_3857</title>
<path fill="#fe640b" stroke="black" d="M556.12,-547.75C556.12,-547.75 526.12,-547.75 526.12,-547.75 520.12,-547.75 514.12,-541.75 514.12,-535.75 514.12,-535.75 514.12,-523.75 514.12,-523.75 514.12,-517.75 520.12,-511.75 526.12,-511.75 526.12,-511.75 556.12,-511.75 556.12,-511.75 562.12,-511.75 568.12,-517.75 568.12,-523.75 568.12,-523.75 568.12,-535.75 568.12,-535.75 568.12,-541.75 562.12,-547.75 556.12,-547.75"/>
<text text-anchor="middle" x="541.12" y="-526.25" font-family="Arial" font-size="10.00" fill="#eff1f5">S(17, 4)</text>
</g>
<!-- (60, 17, 4)_3857&#45;&gt;Stable_(60, 17, 4)_3857 -->
<g id="edge42" class="edge">
<title>(60, 17, 4)_3857&#45;&gt;Stable_(60, 17, 4)_3857</title>
<path fill="none" stroke="#4c4f69" d="M541.12,-599.15C541.12,-587.76 541.12,-572.59 541.12,-559.43"/>
<polygon fill="#4c4f69" stroke="#4c4f69" points="544.63,-559.59 541.13,-549.59 537.63,-559.59 544.63,-559.59"/>
</g>
<!-- (23, 55, 9)_60158 -->
<g id="node45" class="node">
<title>(23, 55, 9)_60158</title>
<path fill="#04a5e5" stroke="black" d="M637.25,-547.75C637.25,-547.75 601,-547.75 601,-547.75 595,-547.75 589,-541.75 589,-535.75 589,-535.75 589,-523.75 589,-523.75 589,-517.75 595,-511.75 601,-511.75 601,-511.75 637.25,-511.75 637.25,-511.75 643.25,-511.75 649.25,-517.75 649.25,-523.75 649.25,-523.75 649.25,-535.75 649.25,-535.75 649.25,-541.75 643.25,-547.75 637.25,-547.75"/>
<text text-anchor="middle" x="619.12" y="-526.25" font-family="Arial" font-size="10.00" fill="#eff1f5">(23, 55, 9)</text>
</g>
<!-- (22, 55, 9)_60195&#45;&gt;(23, 55, 9)_60158 -->
<g id="edge44" class="edge">
<title>(22, 55, 9)_60195&#45;&gt;(23, 55, 9)_60158</title>
<path fill="none" stroke="#4c4f69" d="M619.12,-599.15C619.12,-587.76 619.12,-572.59 619.12,-559.43"/>
<polygon fill="#4c4f69" stroke="#4c4f69" points="622.63,-559.59 619.13,-549.59 615.63,-559.59 622.63,-559.59"/>
<text text-anchor="middle" x="623.62" y="-568.2" font-family="Arial Bold" font-size="14.00" fill="#4c4f69">E</text>
</g>
<!-- (24, 55, 9)_60125 -->
<g id="node46" class="node">
<title>(24, 55, 9)_60125</title>
<path fill="#04a5e5" stroke="black" d="M638.25,-460C638.25,-460 602,-460 602,-460 596,-460 590,-454 590,-448 590,-448 590,-436 590,-436 590,-430 596,-424 602,-424 602,-424 638.25,-424 638.25,-424 644.25,-424 650.25,-430 650.25,-436 650.25,-436 650.25,-448 650.25,-448 650.25,-454 644.25,-460 638.25,-460"/>
<text text-anchor="middle" x="620.12" y="-438.5" font-family="Arial" font-size="10.00" fill="#eff1f5">(24, 55, 9)</text>
</g>
<!-- (23, 55, 9)_60158&#45;&gt;(24, 55, 9)_60125 -->
<g id="edge45" class="edge">
<title>(23, 55, 9)_60158&#45;&gt;(24, 55, 9)_60125</title>
<path fill="none" stroke="#4c4f69" d="M619.33,-511.4C619.46,-500.01 619.64,-484.84 619.79,-471.68"/>
<polygon fill="#4c4f69" stroke="#4c4f69" points="623.29,-471.88 619.91,-461.84 616.29,-471.8 623.29,-471.88"/>
<text text-anchor="middle" x="624.21" y="-480.45" font-family="Arial Bold" font-size="14.00" fill="#4c4f69">E</text>
</g>
<!-- (25, 55, 9)_60088 -->
<g id="node47" class="node">
<title>(25, 55, 9)_60088</title>
<path fill="#04a5e5" stroke="black" d="M636.25,-372.25C636.25,-372.25 600,-372.25 600,-372.25 594,-372.25 588,-366.25 588,-360.25 588,-360.25 588,-348.25 588,-348.25 588,-342.25 594,-336.25 600,-336.25 600,-336.25 636.25,-336.25 636.25,-336.25 642.25,-336.25 648.25,-342.25 648.25,-348.25 648.25,-348.25 648.25,-360.25 648.25,-360.25 648.25,-366.25 642.25,-372.25 636.25,-372.25"/>
<text text-anchor="middle" x="618.12" y="-350.75" font-family="Arial" font-size="10.00" fill="#eff1f5">(25, 55, 9)</text>
</g>
<!-- (24, 55, 9)_60125&#45;&gt;(25, 55, 9)_60088 -->
<g id="edge46" class="edge">
<title>(24, 55, 9)_60125&#45;&gt;(25, 55, 9)_60088</title>
<path fill="none" stroke="#4c4f69" d="M619.72,-423.65C619.45,-412.26 619.1,-397.09 618.79,-383.93"/>
<polygon fill="#4c4f69" stroke="#4c4f69" points="622.3,-384.01 618.56,-374.09 615.3,-384.17 622.3,-384.01"/>
<text text-anchor="middle" x="623.8" y="-392.7" font-family="Arial Bold" font-size="14.00" fill="#4c4f69">E</text>
</g>
<!-- (24, 55, 9)_58907 -->
<g id="node59" class="node">
<title>(24, 55, 9)_58907</title>
<path fill="#04a5e5" stroke="black" d="M714.25,-372.25C714.25,-372.25 678,-372.25 678,-372.25 672,-372.25 666,-366.25 666,-360.25 666,-360.25 666,-348.25 666,-348.25 666,-342.25 672,-336.25 678,-336.25 678,-336.25 714.25,-336.25 714.25,-336.25 720.25,-336.25 726.25,-342.25 726.25,-348.25 726.25,-348.25 726.25,-360.25 726.25,-360.25 726.25,-366.25 720.25,-372.25 714.25,-372.25"/>
<text text-anchor="middle" x="696.12" y="-350.75" font-family="Arial" font-size="10.00" fill="#eff1f5">(24, 55, 9)</text>
</g>
<!-- (24, 55, 9)_60125&#45;&gt;(24, 55, 9)_58907 -->
<g id="edge58" class="edge">
<title>(24, 55, 9)_60125&#45;&gt;(24, 55, 9)_58907</title>
<path fill="none" stroke="#4c4f69" d="M635.5,-423.65C648.69,-408.77 667.59,-387.45 680.77,-372.58"/>
</g>
<!-- (26, 55, 9)_60066 -->
<g id="node48" class="node">
<title>(26, 55, 9)_60066</title>
<path fill="#04a5e5" stroke="black" d="M636.25,-284.5C636.25,-284.5 600,-284.5 600,-284.5 594,-284.5 588,-278.5 588,-272.5 588,-272.5 588,-260.5 588,-260.5 588,-254.5 594,-248.5 600,-248.5 600,-248.5 636.25,-248.5 636.25,-248.5 642.25,-248.5 648.25,-254.5 648.25,-260.5 648.25,-260.5 648.25,-272.5 648.25,-272.5 648.25,-278.5 642.25,-284.5 636.25,-284.5"/>
<text text-anchor="middle" x="618.12" y="-263" font-family="Arial" font-size="10.00" fill="#eff1f5">(26, 55, 9)</text>
</g>
<!-- (25, 55, 9)_60088&#45;&gt;(26, 55, 9)_60066 -->
<g id="edge47" class="edge">
<title>(25, 55, 9)_60088&#45;&gt;(26, 55, 9)_60066</title>
<path fill="none" stroke="#4c4f69" d="M618.12,-335.9C618.12,-324.51 618.12,-309.34 618.12,-296.18"/>
<polygon fill="#4c4f69" stroke="#4c4f69" points="621.63,-296.34 618.13,-286.34 614.63,-296.34 621.63,-296.34"/>
<text text-anchor="middle" x="622.62" y="-304.95" font-family="Arial Bold" font-size="14.00" fill="#4c4f69">E</text>
</g>
<!-- (27, 55, 9)_59005 -->
<g id="node49" class="node">
<title>(27, 55, 9)_59005</title>
<path fill="#d20f39" stroke="black" d="M560.25,-196.75C560.25,-196.75 524,-196.75 524,-196.75 518,-196.75 512,-190.75 512,-184.75 512,-184.75 512,-172.75 512,-172.75 512,-166.75 518,-160.75 524,-160.75 524,-160.75 560.25,-160.75 560.25,-160.75 566.25,-160.75 572.25,-166.75 572.25,-172.75 572.25,-172.75 572.25,-184.75 572.25,-184.75 572.25,-190.75 566.25,-196.75 560.25,-196.75"/>
<text text-anchor="middle" x="542.12" y="-175.25" font-family="Arial" font-size="10.00" fill="#eff1f5">(27, 55, 9)</text>
</g>
<!-- (26, 55, 9)_60066&#45;&gt;(27, 55, 9)_59005 -->
<g id="edge48" class="edge">
<title>(26, 55, 9)_60066&#45;&gt;(27, 55, 9)_59005</title>
<path fill="none" stroke="#4c4f69" d="M602.75,-248.15C591.93,-235.94 577.27,-219.4 565.07,-205.64"/>
<polygon fill="#4c4f69" stroke="#4c4f69" points="567.74,-203.37 558.49,-198.21 562.5,-208.01 567.74,-203.37"/>
<text text-anchor="middle" x="591.43" y="-217.2" font-family="Arial Bold" font-size="14.00" fill="#4c4f69">E</text>
</g>
<!-- (26, 55, 9)_58971 -->
<g id="node54" class="node">
<title>(26, 55, 9)_58971</title>
<path fill="#04a5e5" stroke="black" d="M638.25,-196.75C638.25,-196.75 602,-196.75 602,-196.75 596,-196.75 590,-190.75 590,-184.75 590,-184.75 590,-172.75 590,-172.75 590,-166.75 596,-160.75 602,-160.75 602,-160.75 638.25,-160.75 638.25,-160.75 644.25,-160.75 650.25,-166.75 650.25,-172.75 650.25,-172.75 650.25,-184.75 650.25,-184.75 650.25,-190.75 644.25,-196.75 638.25,-196.75"/>
<text text-anchor="middle" x="620.12" y="-175.25" font-family="Arial" font-size="10.00" fill="#eff1f5">(26, 55, 9)</text>
</g>
<!-- (26, 55, 9)_60066&#45;&gt;(26, 55, 9)_58971 -->
<g id="edge53" class="edge">
<title>(26, 55, 9)_60066&#45;&gt;(26, 55, 9)_58971</title>
<path fill="none" stroke="#4c4f69" d="M618.53,-248.15C618.88,-233.27 619.37,-211.95 619.72,-197.08"/>
</g>
<!-- (55, 29, 7)_2859 -->
<g id="node50" class="node">
<title>(55, 29, 7)_2859</title>
<path fill="#04a5e5" stroke="black" d="M482.25,-109C482.25,-109 446,-109 446,-109 440,-109 434,-103 434,-97 434,-97 434,-85 434,-85 434,-79 440,-73 446,-73 446,-73 482.25,-73 482.25,-73 488.25,-73 494.25,-79 494.25,-85 494.25,-85 494.25,-97 494.25,-97 494.25,-103 488.25,-109 482.25,-109"/>
<text text-anchor="middle" x="464.12" y="-87.5" font-family="Arial" font-size="10.00" fill="#eff1f5">(55, 29, 7)</text>
</g>
<!-- (27, 55, 9)_59005&#45;&gt;(55, 29, 7)_2859 -->
<g id="edge49" class="edge">
<title>(27, 55, 9)_59005&#45;&gt;(55, 29, 7)_2859</title>
<path fill="none" stroke="#4c4f69" d="M518.9,-152.22C506.31,-138.38 491.09,-121.64 479.89,-109.33"/>
<polygon fill="#4c4f69" stroke="#4c4f69" points="516,-154.24 525.32,-159.28 521.18,-149.52 516,-154.24"/>
<text text-anchor="middle" x="514.61" y="-129.45" font-family="Arial Bold" font-size="14.00" fill="#4c4f69">P</text>
</g>
<!-- (27, 55, 9)_51832 -->
<g id="node52" class="node">
<title>(27, 55, 9)_51832</title>
<path fill="#04a5e5" stroke="black" d="M560.25,-109C560.25,-109 524,-109 524,-109 518,-109 512,-103 512,-97 512,-97 512,-85 512,-85 512,-79 518,-73 524,-73 524,-73 560.25,-73 560.25,-73 566.25,-73 572.25,-79 572.25,-85 572.25,-85 572.25,-97 572.25,-97 572.25,-103 566.25,-109 560.25,-109"/>
<text text-anchor="middle" x="542.12" y="-87.5" font-family="Arial" font-size="10.00" fill="#eff1f5">(27, 55, 9)</text>
</g>
<!-- (27, 55, 9)_59005&#45;&gt;(27, 55, 9)_51832 -->
<g id="edge51" class="edge">
<title>(27, 55, 9)_59005&#45;&gt;(27, 55, 9)_51832</title>
<path fill="none" stroke="#4c4f69" d="M542.12,-160.4C542.12,-145.52 542.12,-124.2 542.12,-109.33"/>
</g>
<!-- Stable_(55, 29, 7)_2859 -->
<g id="node51" class="node">
<title>Stable_(55, 29, 7)_2859</title>
<path fill="#fe640b" stroke="black" d="M479.12,-36C479.12,-36 449.12,-36 449.12,-36 443.12,-36 437.12,-30 437.12,-24 437.12,-24 437.12,-12 437.12,-12 437.12,-6 443.12,0 449.12,0 449.12,0 479.12,0 479.12,0 485.12,0 491.12,-6 491.12,-12 491.12,-12 491.12,-24 491.12,-24 491.12,-30 485.12,-36 479.12,-36"/>
<text text-anchor="middle" x="464.12" y="-14.5" font-family="Arial" font-size="10.00" fill="#eff1f5">S(29, 7)</text>
</g>
<!-- (55, 29, 7)_2859&#45;&gt;Stable_(55, 29, 7)_2859 -->
<g id="edge50" class="edge">
<title>(55, 29, 7)_2859&#45;&gt;Stable_(55, 29, 7)_2859</title>
<path fill="none" stroke="#4c4f69" d="M464.12,-72.81C464.12,-65.23 464.12,-56.1 464.12,-47.54"/>
<polygon fill="#4c4f69" stroke="#4c4f69" points="467.63,-47.54 464.13,-37.54 460.63,-47.54 467.63,-47.54"/>
</g>
<!-- C2_(27, 55, 9)_51832 -->
<g id="node53" class="node">
<title>C2_(27, 55, 9)_51832</title>
<path fill="#fe640b" stroke="black" d="M558.38,-36C558.38,-36 525.88,-36 525.88,-36 519.88,-36 513.88,-30 513.88,-24 513.88,-24 513.88,-12 513.88,-12 513.88,-6 519.88,0 525.88,0 525.88,0 558.38,0 558.38,0 564.38,0 570.38,-6 570.38,-12 570.38,-12 570.38,-24 570.38,-24 570.38,-30 564.38,-36 558.38,-36"/>
<text text-anchor="middle" x="542.12" y="-14.5" font-family="Arial" font-size="10.00" fill="#eff1f5">C2(30, 8)</text>
</g>
<!-- (27, 55, 9)_51832&#45;&gt;C2_(27, 55, 9)_51832 -->
<g id="edge52" class="edge">
<title>(27, 55, 9)_51832&#45;&gt;C2_(27, 55, 9)_51832</title>
<path fill="none" stroke="#4c4f69" d="M542.12,-72.81C542.12,-65.23 542.12,-56.1 542.12,-47.54"/>
<polygon fill="#4c4f69" stroke="#4c4f69" points="545.63,-47.54 542.13,-37.54 538.63,-47.54 545.63,-47.54"/>
</g>
<!-- (53, 30, 7)_2510 -->
<g id="node55" class="node">
<title>(53, 30, 7)_2510</title>
<path fill="#04a5e5" stroke="black" d="M638.25,-109C638.25,-109 602,-109 602,-109 596,-109 590,-103 590,-97 590,-97 590,-85 590,-85 590,-79 596,-73 602,-73 602,-73 638.25,-73 638.25,-73 644.25,-73 650.25,-79 650.25,-85 650.25,-85 650.25,-97 650.25,-97 650.25,-103 644.25,-109 638.25,-109"/>
<text text-anchor="middle" x="620.12" y="-87.5" font-family="Arial" font-size="10.00" fill="#eff1f5">(53, 30, 7)</text>
</g>
<!-- (26, 55, 9)_58971&#45;&gt;(53, 30, 7)_2510 -->
<g id="edge54" class="edge">
<title>(26, 55, 9)_58971&#45;&gt;(53, 30, 7)_2510</title>
<path fill="none" stroke="#4c4f69" d="M620.12,-149.04C620.12,-135.88 620.12,-120.71 620.12,-109.33"/>
<polygon fill="#4c4f69" stroke="#4c4f69" points="616.63,-148.88 620.13,-158.88 623.63,-148.88 616.63,-148.88"/>
<text text-anchor="middle" x="624.62" y="-129.45" font-family="Arial Bold" font-size="14.00" fill="#4c4f69">P</text>
</g>
<!-- (26, 55, 9)_45386 -->
<g id="node57" class="node">
<title>(26, 55, 9)_45386</title>
<path fill="#04a5e5" stroke="black" d="M716.25,-109C716.25,-109 680,-109 680,-109 674,-109 668,-103 668,-97 668,-97 668,-85 668,-85 668,-79 674,-73 680,-73 680,-73 716.25,-73 716.25,-73 722.25,-73 728.25,-79 728.25,-85 728.25,-85 728.25,-97 728.25,-97 728.25,-103 722.25,-109 716.25,-109"/>
<text text-anchor="middle" x="698.12" y="-87.5" font-family="Arial" font-size="10.00" fill="#eff1f5">(26, 55, 9)</text>
</g>
<!-- (26, 55, 9)_58971&#45;&gt;(26, 55, 9)_45386 -->
<g id="edge56" class="edge">
<title>(26, 55, 9)_58971&#45;&gt;(26, 55, 9)_45386</title>
<path fill="none" stroke="#4c4f69" d="M635.91,-160.4C649.44,-145.52 668.84,-124.2 682.36,-109.33"/>
</g>
<!-- Stable_(53, 30, 7)_2510 -->
<g id="node56" class="node">
<title>Stable_(53, 30, 7)_2510</title>
<path fill="#fe640b" stroke="black" d="M635.12,-36C635.12,-36 605.12,-36 605.12,-36 599.12,-36 593.12,-30 593.12,-24 593.12,-24 593.12,-12 593.12,-12 593.12,-6 599.12,0 605.12,0 605.12,0 635.12,0 635.12,0 641.12,0 647.12,-6 647.12,-12 647.12,-12 647.12,-24 647.12,-24 647.12,-30 641.12,-36 635.12,-36"/>
<text text-anchor="middle" x="620.12" y="-14.5" font-family="Arial" font-size="10.00" fill="#eff1f5">S(30, 7)</text>
</g>
<!-- (53, 30, 7)_2510&#45;&gt;Stable_(53, 30, 7)_2510 -->
<g id="edge55" class="edge">
<title>(53, 30, 7)_2510&#45;&gt;Stable_(53, 30, 7)_2510</title>
<path fill="none" stroke="#4c4f69" d="M620.12,-72.81C620.12,-65.23 620.12,-56.1 620.12,-47.54"/>
<polygon fill="#4c4f69" stroke="#4c4f69" points="623.63,-47.54 620.13,-37.54 616.63,-47.54 623.63,-47.54"/>
</g>
<!-- Stable_(26, 55, 9)_45386 -->
<g id="node58" class="node">
<title>Stable_(26, 55, 9)_45386</title>
<path fill="#fe640b" stroke="black" d="M713.12,-36C713.12,-36 683.12,-36 683.12,-36 677.12,-36 671.12,-30 671.12,-24 671.12,-24 671.12,-12 671.12,-12 671.12,-6 677.12,0 683.12,0 683.12,0 713.12,0 713.12,0 719.12,0 725.12,-6 725.12,-12 725.12,-12 725.12,-24 725.12,-24 725.12,-30 719.12,-36 713.12,-36"/>
<text text-anchor="middle" x="698.12" y="-14.5" font-family="Arial" font-size="10.00" fill="#eff1f5">S(55, 9)</text>
</g>
<!-- (26, 55, 9)_45386&#45;&gt;Stable_(26, 55, 9)_45386 -->
<g id="edge57" class="edge">
<title>(26, 55, 9)_45386&#45;&gt;Stable_(26, 55, 9)_45386</title>
<path fill="none" stroke="#4c4f69" d="M698.12,-72.81C698.12,-65.23 698.12,-56.1 698.12,-47.54"/>
<polygon fill="#4c4f69" stroke="#4c4f69" points="701.63,-47.54 698.13,-37.54 694.63,-47.54 701.63,-47.54"/>
</g>
<!-- (49, 32, 7)_1895 -->
<g id="node60" class="node">
<title>(49, 32, 7)_1895</title>
<path fill="#04a5e5" stroke="black" d="M714.25,-284.5C714.25,-284.5 678,-284.5 678,-284.5 672,-284.5 666,-278.5 666,-272.5 666,-272.5 666,-260.5 666,-260.5 666,-254.5 672,-248.5 678,-248.5 678,-248.5 714.25,-248.5 714.25,-248.5 720.25,-248.5 726.25,-254.5 726.25,-260.5 726.25,-260.5 726.25,-272.5 726.25,-272.5 726.25,-278.5 720.25,-284.5 714.25,-284.5"/>
<text text-anchor="middle" x="696.12" y="-263" font-family="Arial" font-size="10.00" fill="#eff1f5">(49, 32, 7)</text>
</g>
<!-- (24, 55, 9)_58907&#45;&gt;(49, 32, 7)_1895 -->
<g id="edge59" class="edge">
<title>(24, 55, 9)_58907&#45;&gt;(49, 32, 7)_1895</title>
<path fill="none" stroke="#4c4f69" d="M696.12,-324.54C696.12,-311.38 696.12,-296.21 696.12,-284.83"/>
<polygon fill="#4c4f69" stroke="#4c4f69" points="692.63,-324.38 696.13,-334.38 699.63,-324.38 692.63,-324.38"/>
<text text-anchor="middle" x="700.62" y="-304.95" font-family="Arial Bold" font-size="14.00" fill="#4c4f69">P</text>
</g>
<!-- (24, 55, 9)_55155 -->
<g id="node62" class="node">
<title>(24, 55, 9)_55155</title>
<path fill="#04a5e5" stroke="black" d="M792.25,-284.5C792.25,-284.5 756,-284.5 756,-284.5 750,-284.5 744,-278.5 744,-272.5 744,-272.5 744,-260.5 744,-260.5 744,-254.5 750,-248.5 756,-248.5 756,-248.5 792.25,-248.5 792.25,-248.5 798.25,-248.5 804.25,-254.5 804.25,-260.5 804.25,-260.5 804.25,-272.5 804.25,-272.5 804.25,-278.5 798.25,-284.5 792.25,-284.5"/>
<text text-anchor="middle" x="774.12" y="-263" font-family="Arial" font-size="10.00" fill="#eff1f5">(24, 55, 9)</text>
</g>
<!-- (24, 55, 9)_58907&#45;&gt;(24, 55, 9)_55155 -->
<g id="edge61" class="edge">
<title>(24, 55, 9)_58907&#45;&gt;(24, 55, 9)_55155</title>
<path fill="none" stroke="#4c4f69" d="M711.91,-335.9C725.44,-321.02 744.84,-299.7 758.36,-284.83"/>
</g>
<!-- Stable_(49, 32, 7)_1895 -->
<g id="node61" class="node">
<title>Stable_(49, 32, 7)_1895</title>
<path fill="#fe640b" stroke="black" d="M711.12,-196.75C711.12,-196.75 681.12,-196.75 681.12,-196.75 675.12,-196.75 669.12,-190.75 669.12,-184.75 669.12,-184.75 669.12,-172.75 669.12,-172.75 669.12,-166.75 675.12,-160.75 681.12,-160.75 681.12,-160.75 711.12,-160.75 711.12,-160.75 717.12,-160.75 723.12,-166.75 723.12,-172.75 723.12,-172.75 723.12,-184.75 723.12,-184.75 723.12,-190.75 717.12,-196.75 711.12,-196.75"/>
<text text-anchor="middle" x="696.12" y="-175.25" font-family="Arial" font-size="10.00" fill="#eff1f5">S(32, 7)</text>
</g>
<!-- (49, 32, 7)_1895&#45;&gt;Stable_(49, 32, 7)_1895 -->
<g id="edge60" class="edge">
<title>(49, 32, 7)_1895&#45;&gt;Stable_(49, 32, 7)_1895</title>
<path fill="none" stroke="#4c4f69" d="M696.12,-248.15C696.12,-236.76 696.12,-221.59 696.12,-208.43"/>
<polygon fill="#4c4f69" stroke="#4c4f69" points="699.63,-208.59 696.13,-198.59 692.63,-208.59 699.63,-208.59"/>
</g>
<!-- (23, 55, 9)_&#45;1 -->
<g id="node63" class="node">
<title>(23, 55, 9)_&#45;1</title>
<path fill="#7c7f93" stroke="black" d="M790.25,-196.75C790.25,-196.75 754,-196.75 754,-196.75 748,-196.75 742,-190.75 742,-184.75 742,-184.75 742,-172.75 742,-172.75 742,-166.75 748,-160.75 754,-160.75 754,-160.75 790.25,-160.75 790.25,-160.75 796.25,-160.75 802.25,-166.75 802.25,-172.75 802.25,-172.75 802.25,-184.75 802.25,-184.75 802.25,-190.75 796.25,-196.75 790.25,-196.75"/>
<text text-anchor="middle" x="772.12" y="-175.25" font-family="Arial" font-size="10.00" fill="#eff1f5">(23, 55, 9)</text>
</g>
<!-- (24, 55, 9)_55155&#45;&gt;(23, 55, 9)_&#45;1 -->
<g id="edge62" class="edge">
<title>(24, 55, 9)_55155&#45;&gt;(23, 55, 9)_&#45;1</title>
<path fill="none" stroke="#4c4f69" d="M773.46,-236.79C773.15,-223.63 772.79,-208.46 772.53,-197.08"/>
<polygon fill="#4c4f69" stroke="#4c4f69" points="769.95,-236.72 773.68,-246.63 776.95,-236.56 769.95,-236.72"/>
<text text-anchor="middle" x="777.8" y="-217.2" font-family="Arial Bold" font-size="14.00" fill="#4c4f69">E</text>
</g>
<!-- (24, 55, 9)_45891 -->
<g id="node64" class="node">
<title>(24, 55, 9)_45891</title>
<path fill="#04a5e5" stroke="black" d="M868.25,-196.75C868.25,-196.75 832,-196.75 832,-196.75 826,-196.75 820,-190.75 820,-184.75 820,-184.75 820,-172.75 820,-172.75 820,-166.75 826,-160.75 832,-160.75 832,-160.75 868.25,-160.75 868.25,-160.75 874.25,-160.75 880.25,-166.75 880.25,-172.75 880.25,-172.75 880.25,-184.75 880.25,-184.75 880.25,-190.75 874.25,-196.75 868.25,-196.75"/>
<text text-anchor="middle" x="850.12" y="-175.25" font-family="Arial" font-size="10.00" fill="#eff1f5">(24, 55, 9)</text>
</g>
<!-- (24, 55, 9)_55155&#45;&gt;(24, 55, 9)_45891 -->
<g id="edge63" class="edge">
<title>(24, 55, 9)_55155&#45;&gt;(24, 55, 9)_45891</title>
<path fill="none" stroke="#4c4f69" d="M789.5,-248.15C802.69,-233.27 821.59,-211.95 834.77,-197.08"/>
</g>
<!-- Stable_(24, 55, 9)_45891 -->
<g id="node65" class="node">
<title>Stable_(24, 55, 9)_45891</title>
<path fill="#fe640b" stroke="black" d="M865.12,-109C865.12,-109 835.12,-109 835.12,-109 829.12,-109 823.12,-103 823.12,-97 823.12,-97 823.12,-85 823.12,-85 823.12,-79 829.12,-73 835.12,-73 835.12,-73 865.12,-73 865.12,-73 871.12,-73 877.12,-79 877.12,-85 877.12,-85 877.12,-97 877.12,-97 877.12,-103 871.12,-109 865.12,-109"/>
<text text-anchor="middle" x="850.12" y="-87.5" font-family="Arial" font-size="10.00" fill="#eff1f5">S(55, 9)</text>
</g>
<!-- (24, 55, 9)_45891&#45;&gt;Stable_(24, 55, 9)_45891 -->
<g id="edge64" class="edge">
<title>(24, 55, 9)_45891&#45;&gt;Stable_(24, 55, 9)_45891</title>
<path fill="none" stroke="#4c4f69" d="M850.12,-160.4C850.12,-149.01 850.12,-133.84 850.12,-120.68"/>
<polygon fill="#4c4f69" stroke="#4c4f69" points="853.63,-120.84 850.13,-110.84 846.63,-120.84 853.63,-120.84"/>
</g>
</g>
</svg>
