<?xml version="1.0" encoding="UTF-8" standalone="no"?>
<!DOCTYPE svg PUBLIC "-//W3C//DTD SVG 1.1//EN"
 "http://www.w3.org/Graphics/SVG/1.1/DTD/svg11.dtd">
<!-- Generated by graphviz version 12.2.1 (20241206.2353)
 -->
<!-- Title: why_graph Pages: 1 -->
<svg width="399pt" height="556pt"
 viewBox="0.00 0.00 398.75 555.75" xmlns="http://www.w3.org/2000/svg" xmlns:xlink="http://www.w3.org/1999/xlink">
<g id="graph0" class="graph" transform="scale(1 1) rotate(0) translate(4 551.75)">
<title>why_graph</title>
<polygon fill="#eff1f5" stroke="none" points="-4,4 -4,-551.75 394.75,-551.75 394.75,4 -4,4"/>
<!-- (8, 39, 9)_63301 -->
<g id="node1" class="node">
<title>(8, 39, 9)_63301</title>
<path fill="#40a02b" stroke="black" d="M193.75,-547.75C193.75,-547.75 162.75,-547.75 162.75,-547.75 156.75,-547.75 150.75,-541.75 150.75,-535.75 150.75,-535.75 150.75,-523.75 150.75,-523.75 150.75,-517.75 156.75,-511.75 162.75,-511.75 162.75,-511.75 193.75,-511.75 193.75,-511.75 199.75,-511.75 205.75,-517.75 205.75,-523.75 205.75,-523.75 205.75,-535.75 205.75,-535.75 205.75,-541.75 199.75,-547.75 193.75,-547.75"/>
<text text-anchor="middle" x="178.25" y="-526.25" font-family="Arial" font-size="10.00" fill="#eff1f5">(8, 39, 9)</text>
</g>
<!-- (7, 39, 9)_63246 -->
<g id="node2" class="node">
<title>(7, 39, 9)_63246</title>
<path fill="#40a02b" stroke="black" d="M157.75,-460C157.75,-460 126.75,-460 126.75,-460 120.75,-460 114.75,-454 114.75,-448 114.75,-448 114.75,-436 114.75,-436 114.75,-430 120.75,-424 126.75,-424 126.75,-424 157.75,-424 157.75,-424 163.75,-424 169.75,-430 169.75,-436 169.75,-436 169.75,-448 169.75,-448 169.75,-454 163.75,-460 157.75,-460"/>
<text text-anchor="middle" x="142.25" y="-438.5" font-family="Arial" font-size="10.00" fill="#eff1f5">(7, 39, 9)</text>
</g>
<!-- (8, 39, 9)_63301&#45;&gt;(7, 39, 9)_63246 -->
<g id="edge1" class="edge">
<title>(8, 39, 9)_63301&#45;&gt;(7, 39, 9)_63246</title>
<path fill="none" stroke="#4c4f69" d="M166.53,-500.84C160.93,-487.5 154.4,-471.94 149.52,-460.33"/>
<polygon fill="#4c4f69" stroke="#4c4f69" points="163.28,-502.14 170.38,-510 169.74,-499.43 163.28,-502.14"/>
<text text-anchor="middle" x="167.97" y="-480.45" font-family="Arial Bold" font-size="14.00" fill="#4c4f69">E</text>
</g>
<!-- (8, 39, 9)_57878 -->
<g id="node12" class="node">
<title>(8, 39, 9)_57878</title>
<path fill="#04a5e5" stroke="black" d="M231.75,-460C231.75,-460 200.75,-460 200.75,-460 194.75,-460 188.75,-454 188.75,-448 188.75,-448 188.75,-436 188.75,-436 188.75,-430 194.75,-424 200.75,-424 200.75,-424 231.75,-424 231.75,-424 237.75,-424 243.75,-430 243.75,-436 243.75,-436 243.75,-448 243.75,-448 243.75,-454 237.75,-460 231.75,-460"/>
<text text-anchor="middle" x="216.25" y="-438.5" font-family="Arial" font-size="10.00" fill="#eff1f5">(8, 39, 9)</text>
</g>
<!-- (8, 39, 9)_63301&#45;&gt;(8, 39, 9)_57878 -->
<g id="edge11" class="edge">
<title>(8, 39, 9)_63301&#45;&gt;(8, 39, 9)_57878</title>
<path fill="none" stroke="#4c4f69" d="M185.94,-511.4C192.53,-496.52 201.98,-475.2 208.57,-460.33"/>
</g>
<!-- (6, 39, 9)_63210 -->
<g id="node3" class="node">
<title>(6, 39, 9)_63210</title>
<path fill="#40a02b" stroke="black" d="M137.75,-372.25C137.75,-372.25 106.75,-372.25 106.75,-372.25 100.75,-372.25 94.75,-366.25 94.75,-360.25 94.75,-360.25 94.75,-348.25 94.75,-348.25 94.75,-342.25 100.75,-336.25 106.75,-336.25 106.75,-336.25 137.75,-336.25 137.75,-336.25 143.75,-336.25 149.75,-342.25 149.75,-348.25 149.75,-348.25 149.75,-360.25 149.75,-360.25 149.75,-366.25 143.75,-372.25 137.75,-372.25"/>
<text text-anchor="middle" x="122.25" y="-350.75" font-family="Arial" font-size="10.00" fill="#eff1f5">(6, 39, 9)</text>
</g>
<!-- (7, 39, 9)_63246&#45;&gt;(6, 39, 9)_63210 -->
<g id="edge2" class="edge">
<title>(7, 39, 9)_63246&#45;&gt;(6, 39, 9)_63210</title>
<path fill="none" stroke="#4c4f69" d="M135.65,-412.69C132.56,-399.44 128.97,-384.08 126.29,-372.58"/>
<polygon fill="#4c4f69" stroke="#4c4f69" points="132.18,-413.23 137.86,-422.17 139,-411.64 132.18,-413.23"/>
<text text-anchor="middle" x="138.54" y="-392.7" font-family="Arial Bold" font-size="14.00" fill="#4c4f69">E</text>
</g>
<!-- (6, 22, 5)_60989 -->
<g id="node4" class="node">
<title>(6, 22, 5)_60989</title>
<path fill="#40a02b" stroke="black" d="M43.75,-284.5C43.75,-284.5 12.75,-284.5 12.75,-284.5 6.75,-284.5 0.75,-278.5 0.75,-272.5 0.75,-272.5 0.75,-260.5 0.75,-260.5 0.75,-254.5 6.75,-248.5 12.75,-248.5 12.75,-248.5 43.75,-248.5 43.75,-248.5 49.75,-248.5 55.75,-254.5 55.75,-260.5 55.75,-260.5 55.75,-272.5 55.75,-272.5 55.75,-278.5 49.75,-284.5 43.75,-284.5"/>
<text text-anchor="middle" x="28.25" y="-263" font-family="Arial" font-size="10.00" fill="#eff1f5">(6, 22, 5)</text>
</g>
<!-- (6, 39, 9)_63210&#45;&gt;(6, 22, 5)_60989 -->
<g id="edge3" class="edge">
<title>(6, 39, 9)_63210&#45;&gt;(6, 22, 5)_60989</title>
<path fill="none" stroke="#4c4f69" d="M103.23,-335.9C86.92,-321.02 63.54,-299.7 47.24,-284.83"/>
</g>
<!-- (28, 17, 4)_201 -->
<g id="node7" class="node">
<title>(28, 17, 4)_201</title>
<path fill="#04a5e5" stroke="black" d="M122.38,-284.5C122.38,-284.5 86.12,-284.5 86.12,-284.5 80.12,-284.5 74.12,-278.5 74.12,-272.5 74.12,-272.5 74.12,-260.5 74.12,-260.5 74.12,-254.5 80.12,-248.5 86.12,-248.5 86.12,-248.5 122.38,-248.5 122.38,-248.5 128.38,-248.5 134.38,-254.5 134.38,-260.5 134.38,-260.5 134.38,-272.5 134.38,-272.5 134.38,-278.5 128.38,-284.5 122.38,-284.5"/>
<text text-anchor="middle" x="104.25" y="-263" font-family="Arial" font-size="10.00" fill="#eff1f5">(28, 17, 4)</text>
</g>
<!-- (6, 39, 9)_63210&#45;&gt;(28, 17, 4)_201 -->
<g id="edge6" class="edge">
<title>(6, 39, 9)_63210&#45;&gt;(28, 17, 4)_201</title>
<path fill="none" stroke="#4c4f69" d="M118.61,-335.9C115.48,-321.02 111.01,-299.7 107.89,-284.83"/>
</g>
<!-- (6, 39, 9)_52373 -->
<g id="node9" class="node">
<title>(6, 39, 9)_52373</title>
<path fill="#04a5e5" stroke="black" d="M248.75,-196.75C248.75,-196.75 217.75,-196.75 217.75,-196.75 211.75,-196.75 205.75,-190.75 205.75,-184.75 205.75,-184.75 205.75,-172.75 205.75,-172.75 205.75,-166.75 211.75,-160.75 217.75,-160.75 217.75,-160.75 248.75,-160.75 248.75,-160.75 254.75,-160.75 260.75,-166.75 260.75,-172.75 260.75,-172.75 260.75,-184.75 260.75,-184.75 260.75,-190.75 254.75,-196.75 248.75,-196.75"/>
<text text-anchor="middle" x="233.25" y="-175.25" font-family="Arial" font-size="10.00" fill="#eff1f5">(6, 39, 9)</text>
</g>
<!-- (6, 39, 9)_63210&#45;&gt;(6, 39, 9)_52373 -->
<g id="edge8" class="edge">
<title>(6, 39, 9)_63210&#45;&gt;(6, 39, 9)_52373</title>
<path fill="none" stroke="#4c4f69" d="M131.17,-335.77C142.16,-314.63 161.8,-278.17 181.25,-248.5 193.15,-230.35 208.25,-210.71 219.11,-197.08"/>
</g>
<!-- (7, 22, 5)_51170 -->
<g id="node5" class="node">
<title>(7, 22, 5)_51170</title>
<path fill="#04a5e5" stroke="black" d="M43.75,-196.75C43.75,-196.75 12.75,-196.75 12.75,-196.75 6.75,-196.75 0.75,-190.75 0.75,-184.75 0.75,-184.75 0.75,-172.75 0.75,-172.75 0.75,-166.75 6.75,-160.75 12.75,-160.75 12.75,-160.75 43.75,-160.75 43.75,-160.75 49.75,-160.75 55.75,-166.75 55.75,-172.75 55.75,-172.75 55.75,-184.75 55.75,-184.75 55.75,-190.75 49.75,-196.75 43.75,-196.75"/>
<text text-anchor="middle" x="28.25" y="-175.25" font-family="Arial" font-size="10.00" fill="#eff1f5">(7, 22, 5)</text>
</g>
<!-- (6, 22, 5)_60989&#45;&gt;(7, 22, 5)_51170 -->
<g id="edge4" class="edge">
<title>(6, 22, 5)_60989&#45;&gt;(7, 22, 5)_51170</title>
<path fill="none" stroke="#4c4f69" d="M28.25,-248.15C28.25,-236.76 28.25,-221.59 28.25,-208.43"/>
<polygon fill="#4c4f69" stroke="#4c4f69" points="31.75,-208.59 28.25,-198.59 24.75,-208.59 31.75,-208.59"/>
<text text-anchor="middle" x="32.75" y="-217.2" font-family="Arial Bold" font-size="14.00" fill="#4c4f69">E</text>
</g>
<!-- C2_(7, 22, 5)_51170 -->
<g id="node6" class="node">
<title>C2_(7, 22, 5)_51170</title>
<path fill="#fe640b" stroke="black" d="M44.5,-109C44.5,-109 12,-109 12,-109 6,-109 0,-103 0,-97 0,-97 0,-85 0,-85 0,-79 6,-73 12,-73 12,-73 44.5,-73 44.5,-73 50.5,-73 56.5,-79 56.5,-85 56.5,-85 56.5,-97 56.5,-97 56.5,-103 50.5,-109 44.5,-109"/>
<text text-anchor="middle" x="28.25" y="-87.5" font-family="Arial" font-size="10.00" fill="#eff1f5">C2(17, 4)</text>
</g>
<!-- (7, 22, 5)_51170&#45;&gt;C2_(7, 22, 5)_51170 -->
<g id="edge5" class="edge">
<title>(7, 22, 5)_51170&#45;&gt;C2_(7, 22, 5)_51170</title>
<path fill="none" stroke="#4c4f69" d="M28.25,-160.4C28.25,-149.01 28.25,-133.84 28.25,-120.68"/>
<polygon fill="#4c4f69" stroke="#4c4f69" points="31.75,-120.84 28.25,-110.84 24.75,-120.84 31.75,-120.84"/>
</g>
<!-- Stable_(28, 17, 4)_201 -->
<g id="node8" class="node">
<title>Stable_(28, 17, 4)_201</title>
<path fill="#fe640b" stroke="black" d="M119.25,-196.75C119.25,-196.75 89.25,-196.75 89.25,-196.75 83.25,-196.75 77.25,-190.75 77.25,-184.75 77.25,-184.75 77.25,-172.75 77.25,-172.75 77.25,-166.75 83.25,-160.75 89.25,-160.75 89.25,-160.75 119.25,-160.75 119.25,-160.75 125.25,-160.75 131.25,-166.75 131.25,-172.75 131.25,-172.75 131.25,-184.75 131.25,-184.75 131.25,-190.75 125.25,-196.75 119.25,-196.75"/>
<text text-anchor="middle" x="104.25" y="-175.25" font-family="Arial" font-size="10.00" fill="#eff1f5">S(17, 4)</text>
</g>
<!-- (28, 17, 4)_201&#45;&gt;Stable_(28, 17, 4)_201 -->
<g id="edge7" class="edge">
<title>(28, 17, 4)_201&#45;&gt;Stable_(28, 17, 4)_201</title>
<path fill="none" stroke="#4c4f69" d="M104.25,-248.15C104.25,-236.76 104.25,-221.59 104.25,-208.43"/>
<polygon fill="#4c4f69" stroke="#4c4f69" points="107.75,-208.59 104.25,-198.59 100.75,-208.59 107.75,-208.59"/>
</g>
<!-- (5, 39, 9)_51115 -->
<g id="node10" class="node">
<title>(5, 39, 9)_51115</title>
<path fill="#04a5e5" stroke="black" d="M248.75,-109C248.75,-109 217.75,-109 217.75,-109 211.75,-109 205.75,-103 205.75,-97 205.75,-97 205.75,-85 205.75,-85 205.75,-79 211.75,-73 217.75,-73 217.75,-73 248.75,-73 248.75,-73 254.75,-73 260.75,-79 260.75,-85 260.75,-85 260.75,-97 260.75,-97 260.75,-103 254.75,-109 248.75,-109"/>
<text text-anchor="middle" x="233.25" y="-87.5" font-family="Arial" font-size="10.00" fill="#eff1f5">(5, 39, 9)</text>
</g>
<!-- (6, 39, 9)_52373&#45;&gt;(5, 39, 9)_51115 -->
<g id="edge9" class="edge">
<title>(6, 39, 9)_52373&#45;&gt;(5, 39, 9)_51115</title>
<path fill="none" stroke="#4c4f69" d="M233.25,-149.04C233.25,-135.88 233.25,-120.71 233.25,-109.33"/>
<polygon fill="#4c4f69" stroke="#4c4f69" points="229.75,-148.88 233.25,-158.88 236.75,-148.88 229.75,-148.88"/>
<text text-anchor="middle" x="237.75" y="-129.45" font-family="Arial Bold" font-size="14.00" fill="#4c4f69">E</text>
</g>
<!-- C2_(5, 39, 9)_51115 -->
<g id="node11" class="node">
<title>C2_(5, 39, 9)_51115</title>
<path fill="#fe640b" stroke="black" d="M249.5,-36C249.5,-36 217,-36 217,-36 211,-36 205,-30 205,-24 205,-24 205,-12 205,-12 205,-6 211,0 217,0 217,0 249.5,0 249.5,0 255.5,0 261.5,-6 261.5,-12 261.5,-12 261.5,-24 261.5,-24 261.5,-30 255.5,-36 249.5,-36"/>
<text text-anchor="middle" x="233.25" y="-14.5" font-family="Arial" font-size="10.00" fill="#eff1f5">C2(36, 8)</text>
</g>
<!-- (5, 39, 9)_51115&#45;&gt;C2_(5, 39, 9)_51115 -->
<g id="edge10" class="edge">
<title>(5, 39, 9)_51115&#45;&gt;C2_(5, 39, 9)_51115</title>
<path fill="none" stroke="#4c4f69" d="M233.25,-72.81C233.25,-65.23 233.25,-56.1 233.25,-47.54"/>
<polygon fill="#4c4f69" stroke="#4c4f69" points="236.75,-47.54 233.25,-37.54 229.75,-47.54 236.75,-47.54"/>
</g>
<!-- (17, 32, 7)_47532 -->
<g id="node13" class="node">
<title>(17, 32, 7)_47532</title>
<path fill="#04a5e5" stroke="black" d="M234.38,-372.25C234.38,-372.25 198.12,-372.25 198.12,-372.25 192.12,-372.25 186.12,-366.25 186.12,-360.25 186.12,-360.25 186.12,-348.25 186.12,-348.25 186.12,-342.25 192.12,-336.25 198.12,-336.25 198.12,-336.25 234.38,-336.25 234.38,-336.25 240.38,-336.25 246.38,-342.25 246.38,-348.25 246.38,-348.25 246.38,-360.25 246.38,-360.25 246.38,-366.25 240.38,-372.25 234.38,-372.25"/>
<text text-anchor="middle" x="216.25" y="-350.75" font-family="Arial" font-size="10.00" fill="#eff1f5">(17, 32, 7)</text>
</g>
<!-- (8, 39, 9)_57878&#45;&gt;(17, 32, 7)_47532 -->
<g id="edge12" class="edge">
<title>(8, 39, 9)_57878&#45;&gt;(17, 32, 7)_47532</title>
<path fill="none" stroke="#4c4f69" d="M216.25,-412.29C216.25,-399.13 216.25,-383.96 216.25,-372.58"/>
<polygon fill="#4c4f69" stroke="#4c4f69" points="212.75,-412.13 216.25,-422.13 219.75,-412.13 212.75,-412.13"/>
<text text-anchor="middle" x="220.75" y="-392.7" font-family="Arial Bold" font-size="14.00" fill="#4c4f69">P</text>
</g>
<!-- (8, 39, 9)_52679 -->
<g id="node15" class="node">
<title>(8, 39, 9)_52679</title>
<path fill="#04a5e5" stroke="black" d="M307.75,-372.25C307.75,-372.25 276.75,-372.25 276.75,-372.25 270.75,-372.25 264.75,-366.25 264.75,-360.25 264.75,-360.25 264.75,-348.25 264.75,-348.25 264.75,-342.25 270.75,-336.25 276.75,-336.25 276.75,-336.25 307.75,-336.25 307.75,-336.25 313.75,-336.25 319.75,-342.25 319.75,-348.25 319.75,-348.25 319.75,-360.25 319.75,-360.25 319.75,-366.25 313.75,-372.25 307.75,-372.25"/>
<text text-anchor="middle" x="292.25" y="-350.75" font-family="Arial" font-size="10.00" fill="#eff1f5">(8, 39, 9)</text>
</g>
<!-- (8, 39, 9)_57878&#45;&gt;(8, 39, 9)_52679 -->
<g id="edge14" class="edge">
<title>(8, 39, 9)_57878&#45;&gt;(8, 39, 9)_52679</title>
<path fill="none" stroke="#4c4f69" d="M231.63,-423.65C244.82,-408.77 263.71,-387.45 276.89,-372.58"/>
</g>
<!-- Stable_(17, 32, 7)_47532 -->
<g id="node14" class="node">
<title>Stable_(17, 32, 7)_47532</title>
<path fill="#fe640b" stroke="black" d="M232.25,-284.5C232.25,-284.5 202.25,-284.5 202.25,-284.5 196.25,-284.5 190.25,-278.5 190.25,-272.5 190.25,-272.5 190.25,-260.5 190.25,-260.5 190.25,-254.5 196.25,-248.5 202.25,-248.5 202.25,-248.5 232.25,-248.5 232.25,-248.5 238.25,-248.5 244.25,-254.5 244.25,-260.5 244.25,-260.5 244.25,-272.5 244.25,-272.5 244.25,-278.5 238.25,-284.5 232.25,-284.5"/>
<text text-anchor="middle" x="217.25" y="-263" font-family="Arial" font-size="10.00" fill="#eff1f5">S(32, 7)</text>
</g>
<!-- (17, 32, 7)_47532&#45;&gt;Stable_(17, 32, 7)_47532 -->
<g id="edge13" class="edge">
<title>(17, 32, 7)_47532&#45;&gt;Stable_(17, 32, 7)_47532</title>
<path fill="none" stroke="#4c4f69" d="M216.45,-335.9C216.59,-324.51 216.76,-309.34 216.92,-296.18"/>
<polygon fill="#4c4f69" stroke="#4c4f69" points="220.41,-296.38 217.03,-286.34 213.41,-296.3 220.41,-296.38"/>
</g>
<!-- (7, 39, 9)_52558 -->
<g id="node16" class="node">
<title>(7, 39, 9)_52558</title>
<path fill="#04a5e5" stroke="black" d="M305.75,-284.5C305.75,-284.5 274.75,-284.5 274.75,-284.5 268.75,-284.5 262.75,-278.5 262.75,-272.5 262.75,-272.5 262.75,-260.5 262.75,-260.5 262.75,-254.5 268.75,-248.5 274.75,-248.5 274.75,-248.5 305.75,-248.5 305.75,-248.5 311.75,-248.5 317.75,-254.5 317.75,-260.5 317.75,-260.5 317.75,-272.5 317.75,-272.5 317.75,-278.5 311.75,-284.5 305.75,-284.5"/>
<text text-anchor="middle" x="290.25" y="-263" font-family="Arial" font-size="10.00" fill="#eff1f5">(7, 39, 9)</text>
</g>
<!-- (8, 39, 9)_52679&#45;&gt;(7, 39, 9)_52558 -->
<g id="edge15" class="edge">
<title>(8, 39, 9)_52679&#45;&gt;(7, 39, 9)_52558</title>
<path fill="none" stroke="#4c4f69" d="M291.58,-324.54C291.27,-311.38 290.92,-296.21 290.65,-284.83"/>
<polygon fill="#4c4f69" stroke="#4c4f69" points="288.08,-324.47 291.81,-334.38 295.08,-324.31 288.08,-324.47"/>
<text text-anchor="middle" x="295.93" y="-304.95" font-family="Arial Bold" font-size="14.00" fill="#4c4f69">E</text>
</g>
<!-- (8, 39, 9)_49939 -->
<g id="node17" class="node">
<title>(8, 39, 9)_49939</title>
<path fill="#04a5e5" stroke="black" d="M378.75,-284.5C378.75,-284.5 347.75,-284.5 347.75,-284.5 341.75,-284.5 335.75,-278.5 335.75,-272.5 335.75,-272.5 335.75,-260.5 335.75,-260.5 335.75,-254.5 341.75,-248.5 347.75,-248.5 347.75,-248.5 378.75,-248.5 378.75,-248.5 384.75,-248.5 390.75,-254.5 390.75,-260.5 390.75,-260.5 390.75,-272.5 390.75,-272.5 390.75,-278.5 384.75,-284.5 378.75,-284.5"/>
<text text-anchor="middle" x="363.25" y="-263" font-family="Arial" font-size="10.00" fill="#eff1f5">(8, 39, 9)</text>
</g>
<!-- (8, 39, 9)_52679&#45;&gt;(8, 39, 9)_49939 -->
<g id="edge17" class="edge">
<title>(8, 39, 9)_52679&#45;&gt;(8, 39, 9)_49939</title>
<path fill="none" stroke="#4c4f69" d="M306.62,-335.9C318.94,-321.02 336.59,-299.7 348.9,-284.83"/>
</g>
<!-- (7, 39, 9)_52558&#45;&gt;(6, 39, 9)_52373 -->
<g id="edge16" class="edge">
<title>(7, 39, 9)_52558&#45;&gt;(6, 39, 9)_52373</title>
<path fill="none" stroke="#4c4f69" d="M272.49,-238.79C263.45,-225.19 252.72,-209.04 244.77,-197.08"/>
<polygon fill="#4c4f69" stroke="#4c4f69" points="269.43,-240.5 277.88,-246.89 275.26,-236.62 269.43,-240.5"/>
<text text-anchor="middle" x="271.36" y="-217.2" font-family="Arial Bold" font-size="14.00" fill="#4c4f69">E</text>
</g>
<!-- Stable_(8, 39, 9)_49939 -->
<g id="node18" class="node">
<title>Stable_(8, 39, 9)_49939</title>
<path fill="#fe640b" stroke="black" d="M378.25,-196.75C378.25,-196.75 348.25,-196.75 348.25,-196.75 342.25,-196.75 336.25,-190.75 336.25,-184.75 336.25,-184.75 336.25,-172.75 336.25,-172.75 336.25,-166.75 342.25,-160.75 348.25,-160.75 348.25,-160.75 378.25,-160.75 378.25,-160.75 384.25,-160.75 390.25,-166.75 390.25,-172.75 390.25,-172.75 390.25,-184.75 390.25,-184.75 390.25,-190.75 384.25,-196.75 378.25,-196.75"/>
<text text-anchor="middle" x="363.25" y="-175.25" font-family="Arial" font-size="10.00" fill="#eff1f5">S(39, 9)</text>
</g>
<!-- (8, 39, 9)_49939&#45;&gt;Stable_(8, 39, 9)_49939 -->
<g id="edge18" class="edge">
<title>(8, 39, 9)_49939&#45;&gt;Stable_(8, 39, 9)_49939</title>
<path fill="none" stroke="#4c4f69" d="M363.25,-248.15C363.25,-236.76 363.25,-221.59 363.25,-208.43"/>
<polygon fill="#4c4f69" stroke="#4c4f69" points="366.75,-208.59 363.25,-198.59 359.75,-208.59 366.75,-208.59"/>
</g>
</g>
</svg>
