<?xml version="1.0" encoding="UTF-8" standalone="no"?>
<!DOCTYPE svg PUBLIC "-//W3C//DTD SVG 1.1//EN"
 "http://www.w3.org/Graphics/SVG/1.1/DTD/svg11.dtd">
<!-- Generated by graphviz version 12.2.1 (20241206.2353)
 -->
<!-- Title: why_graph Pages: 1 -->
<svg width="264pt" height="366pt"
 viewBox="0.00 0.00 263.50 365.50" xmlns="http://www.w3.org/2000/svg" xmlns:xlink="http://www.w3.org/1999/xlink">
<g id="graph0" class="graph" transform="scale(1 1) rotate(0) translate(4 361.5)">
<title>why_graph</title>
<polygon fill="#eff1f5" stroke="none" points="-4,4 -4,-361.5 259.5,-361.5 259.5,4 -4,4"/>
<!-- (17, 46, 11)_20865 -->
<g id="node1" class="node">
<title>(17, 46, 11)_20865</title>
<path fill="#40a02b" stroke="black" d="M128.5,-357.5C128.5,-357.5 87.75,-357.5 87.75,-357.5 81.75,-357.5 75.75,-351.5 75.75,-345.5 75.75,-345.5 75.75,-333.5 75.75,-333.5 75.75,-327.5 81.75,-321.5 87.75,-321.5 87.75,-321.5 128.5,-321.5 128.5,-321.5 134.5,-321.5 140.5,-327.5 140.5,-333.5 140.5,-333.5 140.5,-345.5 140.5,-345.5 140.5,-351.5 134.5,-357.5 128.5,-357.5"/>
<text text-anchor="middle" x="108.12" y="-336" font-family="Arial" font-size="10.00" fill="#eff1f5">(17, 46, 11)</text>
</g>
<!-- (17, 31, 9)_13544 -->
<g id="node2" class="node">
<title>(17, 31, 9)_13544</title>
<path fill="#04a5e5" stroke="black" d="M48.25,-284.5C48.25,-284.5 12,-284.5 12,-284.5 6,-284.5 0,-278.5 0,-272.5 0,-272.5 0,-260.5 0,-260.5 0,-254.5 6,-248.5 12,-248.5 12,-248.5 48.25,-248.5 48.25,-248.5 54.25,-248.5 60.25,-254.5 60.25,-260.5 60.25,-260.5 60.25,-272.5 60.25,-272.5 60.25,-278.5 54.25,-284.5 48.25,-284.5"/>
<text text-anchor="middle" x="30.12" y="-263" font-family="Arial" font-size="10.00" fill="#eff1f5">(17, 31, 9)</text>
</g>
<!-- (17, 46, 11)_20865&#45;&gt;(17, 31, 9)_13544 -->
<g id="edge1" class="edge">
<title>(17, 46, 11)_20865&#45;&gt;(17, 31, 9)_13544</title>
<path fill="none" stroke="#4c4f69" d="M89.24,-321.31C77.07,-310.23 61.3,-295.87 49.1,-284.77"/>
</g>
<!-- (48, 15, 2)_713 -->
<g id="node4" class="node">
<title>(48, 15, 2)_713</title>
<path fill="#40a02b" stroke="black" stroke-dasharray="5,2" d="M126.25,-284.5C126.25,-284.5 90,-284.5 90,-284.5 84,-284.5 78,-278.5 78,-272.5 78,-272.5 78,-260.5 78,-260.5 78,-254.5 84,-248.5 90,-248.5 90,-248.5 126.25,-248.5 126.25,-248.5 132.25,-248.5 138.25,-254.5 138.25,-260.5 138.25,-260.5 138.25,-272.5 138.25,-272.5 138.25,-278.5 132.25,-284.5 126.25,-284.5"/>
<text text-anchor="middle" x="108.12" y="-263" font-family="Arial" font-size="10.00" fill="#eff1f5">(48, 15, 2)</text>
</g>
<!-- (17, 46, 11)_20865&#45;&gt;(48, 15, 2)_713 -->
<g id="edge3" class="edge">
<title>(17, 46, 11)_20865&#45;&gt;(48, 15, 2)_713</title>
<path fill="none" stroke="#4c4f69" d="M108.12,-321.31C108.12,-310.15 108.12,-295.66 108.12,-284.53"/>
</g>
<!-- (17, 46, 11)_15901 -->
<g id="node5" class="node">
<title>(17, 46, 11)_15901</title>
<path fill="#04a5e5" stroke="black" d="M209.5,-284.5C209.5,-284.5 168.75,-284.5 168.75,-284.5 162.75,-284.5 156.75,-278.5 156.75,-272.5 156.75,-272.5 156.75,-260.5 156.75,-260.5 156.75,-254.5 162.75,-248.5 168.75,-248.5 168.75,-248.5 209.5,-248.5 209.5,-248.5 215.5,-248.5 221.5,-254.5 221.5,-260.5 221.5,-260.5 221.5,-272.5 221.5,-272.5 221.5,-278.5 215.5,-284.5 209.5,-284.5"/>
<text text-anchor="middle" x="189.12" y="-263" font-family="Arial" font-size="10.00" fill="#eff1f5">(17, 46, 11)</text>
</g>
<!-- (17, 46, 11)_20865&#45;&gt;(17, 46, 11)_15901 -->
<g id="edge4" class="edge">
<title>(17, 46, 11)_20865&#45;&gt;(17, 46, 11)_15901</title>
<path fill="none" stroke="#4c4f69" d="M127.73,-321.31C140.37,-310.23 156.76,-295.87 169.42,-284.77"/>
</g>
<!-- Stable_(17, 31, 9)_13544 -->
<g id="node3" class="node">
<title>Stable_(17, 31, 9)_13544</title>
<path fill="#fe640b" stroke="black" d="M45.12,-196.75C45.12,-196.75 15.12,-196.75 15.12,-196.75 9.13,-196.75 3.12,-190.75 3.12,-184.75 3.12,-184.75 3.12,-172.75 3.12,-172.75 3.12,-166.75 9.12,-160.75 15.12,-160.75 15.12,-160.75 45.12,-160.75 45.12,-160.75 51.12,-160.75 57.12,-166.75 57.12,-172.75 57.12,-172.75 57.12,-184.75 57.12,-184.75 57.12,-190.75 51.12,-196.75 45.12,-196.75"/>
<text text-anchor="middle" x="30.12" y="-175.25" font-family="Arial" font-size="10.00" fill="#eff1f5">S(31, 9)</text>
</g>
<!-- (17, 31, 9)_13544&#45;&gt;Stable_(17, 31, 9)_13544 -->
<g id="edge2" class="edge">
<title>(17, 31, 9)_13544&#45;&gt;Stable_(17, 31, 9)_13544</title>
<path fill="none" stroke="#4c4f69" d="M30.12,-248.15C30.12,-236.76 30.12,-221.59 30.12,-208.43"/>
<polygon fill="#4c4f69" stroke="#4c4f69" points="33.63,-208.59 30.13,-198.59 26.63,-208.59 33.63,-208.59"/>
</g>
<!-- (16, 46, 11)_15816 -->
<g id="node6" class="node">
<title>(16, 46, 11)_15816</title>
<path fill="#04a5e5" stroke="black" d="M209.5,-196.75C209.5,-196.75 168.75,-196.75 168.75,-196.75 162.75,-196.75 156.75,-190.75 156.75,-184.75 156.75,-184.75 156.75,-172.75 156.75,-172.75 156.75,-166.75 162.75,-160.75 168.75,-160.75 168.75,-160.75 209.5,-160.75 209.5,-160.75 215.5,-160.75 221.5,-166.75 221.5,-172.75 221.5,-172.75 221.5,-184.75 221.5,-184.75 221.5,-190.75 215.5,-196.75 209.5,-196.75"/>
<text text-anchor="middle" x="189.12" y="-175.25" font-family="Arial" font-size="10.00" fill="#eff1f5">(16, 46, 11)</text>
</g>
<!-- (17, 46, 11)_15901&#45;&gt;(16, 46, 11)_15816 -->
<g id="edge5" class="edge">
<title>(17, 46, 11)_15901&#45;&gt;(16, 46, 11)_15816</title>
<path fill="none" stroke="#4c4f69" d="M189.12,-236.79C189.12,-223.63 189.12,-208.46 189.12,-197.08"/>
<polygon fill="#4c4f69" stroke="#4c4f69" points="185.63,-236.63 189.13,-246.63 192.63,-236.63 185.63,-236.63"/>
<text text-anchor="middle" x="193.62" y="-217.2" font-family="Arial Bold" font-size="14.00" fill="#4c4f69">E</text>
</g>
<!-- (15, 46, 11)_14727 -->
<g id="node7" class="node">
<title>(15, 46, 11)_14727</title>
<path fill="#04a5e5" stroke="black" d="M160.5,-109C160.5,-109 119.75,-109 119.75,-109 113.75,-109 107.75,-103 107.75,-97 107.75,-97 107.75,-85 107.75,-85 107.75,-79 113.75,-73 119.75,-73 119.75,-73 160.5,-73 160.5,-73 166.5,-73 172.5,-79 172.5,-85 172.5,-85 172.5,-97 172.5,-97 172.5,-103 166.5,-109 160.5,-109"/>
<text text-anchor="middle" x="140.12" y="-87.5" font-family="Arial" font-size="10.00" fill="#eff1f5">(15, 46, 11)</text>
</g>
<!-- (16, 46, 11)_15816&#45;&gt;(15, 46, 11)_14727 -->
<g id="edge6" class="edge">
<title>(16, 46, 11)_15816&#45;&gt;(15, 46, 11)_14727</title>
<path fill="none" stroke="#4c4f69" d="M173.63,-150.64C165.91,-137.12 156.8,-121.18 150.03,-109.33"/>
<polygon fill="#4c4f69" stroke="#4c4f69" points="170.46,-152.14 178.46,-159.08 176.54,-148.66 170.46,-152.14"/>
<text text-anchor="middle" x="173.51" y="-129.45" font-family="Arial Bold" font-size="14.00" fill="#4c4f69">E</text>
</g>
<!-- (16, 46, 11)_13658 -->
<g id="node9" class="node">
<title>(16, 46, 11)_13658</title>
<path fill="#04a5e5" stroke="black" d="M243.5,-109C243.5,-109 202.75,-109 202.75,-109 196.75,-109 190.75,-103 190.75,-97 190.75,-97 190.75,-85 190.75,-85 190.75,-79 196.75,-73 202.75,-73 202.75,-73 243.5,-73 243.5,-73 249.5,-73 255.5,-79 255.5,-85 255.5,-85 255.5,-97 255.5,-97 255.5,-103 249.5,-109 243.5,-109"/>
<text text-anchor="middle" x="223.12" y="-87.5" font-family="Arial" font-size="10.00" fill="#eff1f5">(16, 46, 11)</text>
</g>
<!-- (16, 46, 11)_15816&#45;&gt;(16, 46, 11)_13658 -->
<g id="edge8" class="edge">
<title>(16, 46, 11)_15816&#45;&gt;(16, 46, 11)_13658</title>
<path fill="none" stroke="#4c4f69" d="M196.01,-160.4C201.9,-145.52 210.36,-124.2 216.25,-109.33"/>
</g>
<!-- C2_(15, 46, 11)_14727 -->
<g id="node8" class="node">
<title>C2_(15, 46, 11)_14727</title>
<path fill="#fe640b" stroke="black" d="M159,-36C159,-36 121.25,-36 121.25,-36 115.25,-36 109.25,-30 109.25,-24 109.25,-24 109.25,-12 109.25,-12 109.25,-6 115.25,0 121.25,0 121.25,0 159,0 159,0 165,0 171,-6 171,-12 171,-12 171,-24 171,-24 171,-30 165,-36 159,-36"/>
<text text-anchor="middle" x="140.12" y="-14.5" font-family="Arial" font-size="10.00" fill="#eff1f5">C2(33, 10)</text>
</g>
<!-- (15, 46, 11)_14727&#45;&gt;C2_(15, 46, 11)_14727 -->
<g id="edge7" class="edge">
<title>(15, 46, 11)_14727&#45;&gt;C2_(15, 46, 11)_14727</title>
<path fill="none" stroke="#4c4f69" d="M140.12,-72.81C140.12,-65.23 140.12,-56.1 140.12,-47.54"/>
<polygon fill="#4c4f69" stroke="#4c4f69" points="143.63,-47.54 140.13,-37.54 136.63,-47.54 143.63,-47.54"/>
</g>
<!-- Stable_(16, 46, 11)_13658 -->
<g id="node10" class="node">
<title>Stable_(16, 46, 11)_13658</title>
<path fill="#fe640b" stroke="black" d="M238.62,-36C238.62,-36 207.62,-36 207.62,-36 201.62,-36 195.62,-30 195.62,-24 195.62,-24 195.62,-12 195.62,-12 195.62,-6 201.62,0 207.62,0 207.62,0 238.62,0 238.62,0 244.62,0 250.62,-6 250.62,-12 250.62,-12 250.62,-24 250.62,-24 250.62,-30 244.62,-36 238.62,-36"/>
<text text-anchor="middle" x="223.12" y="-14.5" font-family="Arial" font-size="10.00" fill="#eff1f5">S(46, 11)</text>
</g>
<!-- (16, 46, 11)_13658&#45;&gt;Stable_(16, 46, 11)_13658 -->
<g id="edge9" class="edge">
<title>(16, 46, 11)_13658&#45;&gt;Stable_(16, 46, 11)_13658</title>
<path fill="none" stroke="#4c4f69" d="M223.12,-72.81C223.12,-65.23 223.12,-56.1 223.12,-47.54"/>
<polygon fill="#4c4f69" stroke="#4c4f69" points="226.63,-47.54 223.13,-37.54 219.63,-47.54 226.63,-47.54"/>
</g>
</g>
</svg>
